<svg width="273" height="57" viewBox="0 0 273 57" fill="none" xmlns="http://www.w3.org/2000/svg">
<path d="M89.8511 33.8019H80.9662L79.6164 37.8994H72.2959L81.4295 12.8291H89.452L98.5495 37.8994H91.1908L89.8511 33.8019ZM85.4086 20.3642L82.7452 28.4649H88.1103L85.4086 20.3642Z" fill="#171717"/>
<path d="M100.828 11.5928H107.792V37.9065H100.828V11.5928Z" fill="#171717"/>
<path d="M119.124 17.7176C120.283 17.6482 121.44 17.8921 122.472 18.4235C123.504 18.955 124.374 19.7545 124.991 20.7381V17.9543H131.954V37.6756C131.954 43.0045 129.042 47.7037 121.862 47.7037C115.645 47.7037 111.806 44.5769 111.309 39.6391H118.172C118.457 40.9166 119.664 41.6627 121.441 41.6627C123.394 41.6627 124.995 40.7763 124.995 37.6836V35.1244C124.378 36.1076 123.508 36.9067 122.477 37.4381C121.445 37.9696 120.289 38.2137 119.13 38.1449C114.405 38.1449 110.639 34.272 110.639 27.9162C110.639 21.5604 114.397 17.7176 119.124 17.7176ZM121.363 23.7927C120.843 23.7936 120.33 23.905 119.858 24.1195C119.385 24.3339 118.963 24.6465 118.62 25.0365C118.277 25.4265 118.021 25.885 117.87 26.3815C117.718 26.878 117.673 27.4012 117.739 27.9162C117.83 28.613 118.121 29.2686 118.576 29.8044C119.03 30.3403 119.63 30.7338 120.302 30.9377C120.975 31.1417 121.692 31.1475 122.368 30.9545C123.044 30.7614 123.649 30.3777 124.113 29.8492C124.576 29.3208 124.877 28.67 124.98 27.9748C125.083 27.2796 124.984 26.5694 124.694 25.9293C124.403 25.2892 123.935 24.7463 123.344 24.3656C122.753 23.9849 122.066 23.7825 121.363 23.7826V23.7927Z" fill="#171717"/>
<path d="M145.204 38.1341C143.195 38.082 141.247 37.439 139.602 36.2854C137.957 35.1319 136.688 33.5189 135.955 31.6483C135.222 29.7777 135.056 27.7324 135.479 25.7682C135.902 23.804 136.894 22.008 138.332 20.6049C139.77 19.2017 141.59 18.2536 143.564 17.8792C145.538 17.5048 147.579 17.7206 149.431 18.4997C151.283 19.2787 152.864 20.5865 153.977 22.2594C155.09 23.9323 155.685 25.8962 155.687 27.9054C155.752 29.2876 155.523 30.6678 155.015 31.9551C154.507 33.2424 153.733 34.4076 152.743 35.3739C151.752 36.3402 150.568 37.0858 149.269 37.5616C147.97 38.0373 146.584 38.2324 145.204 38.1341ZM145.204 32.0931C146.981 32.0931 148.613 30.7795 148.613 27.9014C148.613 25.0574 147.009 23.7437 145.25 23.7437C143.491 23.7437 141.909 25.0574 141.909 27.9014C141.899 30.7795 143.391 32.0931 145.204 32.0931Z" fill="#171717"/>
<path d="M176.54 18.1365L166.13 32.2421H176.54V37.908H158.312V32.6011L168.613 18.4614H158.312V12.8457H176.54V18.1365Z" fill="#171717"/>
<path d="M189.291 38.1352C186.607 38.0976 184.045 37.0047 182.16 35.093C180.275 33.1813 179.218 30.6044 179.218 27.9196C179.218 25.2347 180.275 22.6578 182.16 20.7461C184.045 18.8344 186.607 17.7415 189.291 17.7039C190.629 17.6118 191.972 17.8063 193.229 18.2744C194.486 18.7426 195.628 19.4736 196.58 20.4186C197.532 21.3637 198.271 22.501 198.749 23.7545C199.226 25.0081 199.43 26.3491 199.347 27.6879C199.348 28.2338 199.312 28.7792 199.241 29.3205H186.058C186.201 31.633 187.444 32.5536 189.003 32.5536C189.526 32.573 190.044 32.4341 190.487 32.155C190.931 31.8759 191.28 31.4697 191.489 30.9892H198.91C198.38 33.1087 197.132 34.9792 195.379 36.2821C193.625 37.585 191.474 38.2398 189.291 38.1352ZM186.094 25.941H192.236C192.238 25.5597 192.16 25.1821 192.007 24.8327C191.854 24.4832 191.63 24.1697 191.348 23.9121C191.067 23.6546 190.735 23.4589 190.373 23.3375C190.012 23.2161 189.629 23.1718 189.249 23.2073C188.471 23.1669 187.708 23.4299 187.12 23.9409C186.532 24.4519 186.165 25.171 186.096 25.947L186.094 25.941Z" fill="#171717"/>
<path d="M215.768 27.1928C215.808 26.7345 215.751 26.273 215.603 25.8377C215.454 25.4024 215.217 25.0027 214.906 24.6639C214.594 24.3251 214.216 24.0546 213.795 23.8696C213.374 23.6845 212.919 23.589 212.459 23.589C211.999 23.589 211.544 23.6845 211.123 23.8696C210.702 24.0546 210.324 24.3251 210.013 24.6639C209.702 25.0027 209.464 25.4024 209.316 25.8377C209.167 26.273 209.111 26.7345 209.15 27.1928V37.8988H202.194V17.9529H209.158V20.8049C209.844 19.8409 210.758 19.0612 211.817 18.5347C212.877 18.0081 214.05 17.7511 215.233 17.7864C219.858 17.7864 222.73 21.0556 222.73 26.2782V37.9108H215.766L215.768 27.1928Z" fill="#171717"/>
<path d="M225.998 12.5521C226.113 11.5539 226.592 10.633 227.342 9.96458C228.092 9.29612 229.062 8.92676 230.067 8.92676C231.071 8.92676 232.041 9.29612 232.791 9.96458C233.541 10.633 234.02 11.5539 234.135 12.5521C234.002 13.5366 233.516 14.4393 232.768 15.093C232.02 15.7467 231.06 16.1069 230.067 16.1069C229.073 16.1069 228.113 15.7467 227.365 15.093C226.617 14.4393 226.131 13.5366 225.998 12.5521ZM226.566 17.9532H233.531V37.8991H226.566V17.9532Z" fill="#171717"/>
<path d="M238.61 23.746H236.159V17.9537H238.61V13.1182H245.612V17.9537H249.234V23.746H245.612V30.4267C245.612 31.4917 246.071 31.953 247.244 31.953H249.268V37.8976H246.249C241.837 37.8976 238.61 36.0505 238.61 30.3284V23.746Z" fill="#171717"/>
<path d="M252.469 11.5928H259.434V20.7946C260.129 19.8222 261.054 19.0375 262.126 18.5106C263.199 17.9838 264.385 17.7314 265.579 17.7761C270.128 17.7761 273 21.0453 273 26.2679V37.9065H266.037V27.2005C266.084 26.7384 266.033 26.2716 265.889 25.8302C265.744 25.3888 265.508 24.9826 265.197 24.6379C264.886 24.2932 264.505 24.0177 264.081 23.8291C263.656 23.6406 263.197 23.5431 262.733 23.5431C262.268 23.5431 261.809 23.6406 261.384 23.8291C260.96 24.0177 260.579 24.2932 260.268 24.6379C259.957 24.9826 259.721 25.3888 259.576 25.8302C259.432 26.2716 259.381 26.7384 259.428 27.2005V37.9065H252.463L252.469 11.5928Z" fill="#171717"/>
<path d="M16.9386 56.3148H4.03246C3.32799 56.314 2.636 56.1288 2.02525 55.7777C1.4145 55.4266 0.906244 54.9218 0.55098 54.3135C0.195715 53.7052 0.0058099 53.0145 0.000131206 52.31C-0.00554749 51.6056 0.173198 50.9119 0.51861 50.2979L27.428 2.36759C27.6096 2.038 27.8357 1.73498 28.0999 1.46706C28.3535 1.2147 28.6402 0.998099 28.9523 0.82326C29.5597 0.485726 30.243 0.308594 30.9379 0.308594C31.6327 0.308594 32.3161 0.485726 32.9235 0.82326C33.2349 0.998147 33.521 1.21475 33.7738 1.46706C34.0477 1.73292 34.2827 2.03608 34.4718 2.36759L61.3852 50.2919C61.7309 50.9064 61.9096 51.6006 61.9037 52.3055C61.8978 53.0105 61.7073 53.7016 61.3513 54.3101C60.9954 54.9186 60.4863 55.4233 59.8747 55.7739C59.2631 56.1246 58.5704 56.309 57.8654 56.3088H44.9692C43.6285 53.7635 41.6095 51.639 39.1359 50.1703C36.6622 48.7016 33.8304 47.9461 30.9539 47.9875C28.0779 47.946 25.2465 48.701 22.7729 50.1689C20.2993 51.6368 18.2801 53.7604 16.9386 56.3048V56.3148Z" fill="url(#paint0_linear_908_648)"/>
<path opacity="0.27" d="M27.5469 37.2438L31.1811 32.6689H33.0684L29.713 37.2418L27.5469 37.2438Z" fill="url(#paint1_linear_908_648)"/>
<path opacity="0.22" d="M30.4238 25.874H36.1017L34.4972 27.8796L28.9697 27.7433L30.4238 25.874Z" fill="url(#paint2_linear_908_648)"/>
<path d="M30.4367 25.8887L24.1591 33.849C23.8543 34.1724 23.6846 34.5999 23.6846 35.0443C23.6846 35.4887 23.8543 35.9163 24.1591 36.2397C24.5198 36.6444 24.9736 36.955 25.4814 37.1448C25.9892 37.3345 26.5356 37.3977 27.0733 37.3287L31.614 31.729L36.1226 25.8887H30.4367Z" fill="#FBE069"/>
<path d="M31.1883 32.7002H36.3547C36.3547 32.7002 37.869 33.0692 38.2621 33.9778C38.4879 34.5832 38.4879 35.2497 38.2621 35.855C38.2621 35.855 37.7466 37.2469 36.5372 37.2469H27.5781L31.1883 32.7002Z" fill="#FBE069"/>
<path d="M26.2048 21.3066H35.1639C35.7155 21.3066 36.2446 21.5258 36.6346 21.9158C37.0247 22.3059 37.2438 22.8349 37.2438 23.3865C37.2438 23.6596 37.19 23.9301 37.0855 24.1824C36.9809 24.4347 36.8277 24.664 36.6346 24.8571C36.4415 25.0503 36.2122 25.2035 35.9599 25.308C35.7075 25.4125 35.4371 25.4663 35.1639 25.4663H26.2048C25.9317 25.4663 25.6612 25.4125 25.4089 25.308C25.1566 25.2035 24.9273 25.0503 24.7342 24.8571C24.541 24.664 24.3878 24.4347 24.2833 24.1824C24.1788 23.9301 24.125 23.6596 24.125 23.3865C24.125 22.8349 24.3441 22.3059 24.7342 21.9158C25.1242 21.5258 25.6532 21.3066 26.2048 21.3066Z" fill="#FBE069"/>
<defs>
<linearGradient id="paint0_linear_908_648" x1="-91.8034" y1="122.738" x2="-91.8034" y2="122.57" gradientUnits="userSpaceOnUse">
<stop stop-color="#323232"/>
<stop offset="1" stop-color="#242424"/>
</linearGradient>
<linearGradient id="paint1_linear_908_648" x1="-89.332" y1="120.295" x2="-89.3583" y2="120.332" gradientUnits="userSpaceOnUse">
<stop stop-color="white"/>
<stop offset="1" stop-color="#A7ACAD"/>
</linearGradient>
<linearGradient id="paint2_linear_908_648" x1="-89.999" y1="117.228" x2="-89.999" y2="117.06" gradientUnits="userSpaceOnUse">
<stop stop-color="#A7ACAD"/>
<stop offset="1" stop-color="white"/>
</linearGradient>
</defs>
</svg>
