<svg width="497" height="260" viewBox="0 0 497 260" fill="none" xmlns="http://www.w3.org/2000/svg">
<g clip-path="url(#clip0_481_814)">
<path d="M139.103 59.5715C138.293 59.5715 137.653 59.3369 137.183 58.8675C136.757 58.3982 136.479 57.8862 136.351 57.3315L129.951 16.4355C129.951 16.3929 129.951 16.3502 129.951 16.3075C129.951 16.2649 129.951 16.2222 129.951 16.1795C129.951 15.7955 130.079 15.4755 130.335 15.2195C130.591 14.9209 130.911 14.7715 131.295 14.7715H141.215C142.538 14.7715 143.263 15.3049 143.391 16.3715L146.527 37.8755L150.175 26.4835C150.261 26.1422 150.453 25.7582 150.751 25.3315C151.05 24.9049 151.562 24.6915 152.287 24.6915H157.855C158.581 24.6915 159.093 24.9049 159.391 25.3315C159.69 25.7582 159.903 26.1422 160.031 26.4835L163.615 37.8115L166.815 16.3715C166.943 15.3049 167.647 14.7715 168.927 14.7715H178.847C179.231 14.7715 179.551 14.9209 179.807 15.2195C180.106 15.4755 180.255 15.7955 180.255 16.1795C180.255 16.2222 180.255 16.2649 180.255 16.3075C180.255 16.3502 180.234 16.3929 180.191 16.4355L173.791 57.3315C173.749 57.8862 173.471 58.3982 172.959 58.8675C172.49 59.3369 171.85 59.5715 171.039 59.5715H163.423C162.655 59.5715 162.079 59.3795 161.695 58.9955C161.311 58.5689 161.055 58.2062 160.927 57.9075L155.103 42.1635L149.215 57.9075C149.13 58.2062 148.874 58.5689 148.447 58.9955C148.063 59.3795 147.487 59.5715 146.719 59.5715H139.103ZM200.618 60.2115C195.285 60.2115 191.04 58.8462 187.882 56.1155C184.768 53.3422 183.168 49.1182 183.082 43.4435C183.082 43.2729 183.082 43.0595 183.082 42.8035C183.082 42.5049 183.082 42.2915 183.082 42.1635C183.21 38.6222 183.978 35.6355 185.386 33.2035C186.837 30.7289 188.842 28.8515 191.402 27.5715C194.005 26.2915 197.056 25.6515 200.554 25.6515C204.48 25.6515 207.722 26.4409 210.282 28.0195C212.885 29.5555 214.826 31.6249 216.106 34.2275C217.386 36.7875 218.026 39.6675 218.026 42.8675V44.6595C218.026 45.0862 217.856 45.4702 217.514 45.8115C217.173 46.1529 216.768 46.3235 216.298 46.3235H196.586C196.586 46.3235 196.586 46.3662 196.586 46.4515C196.586 46.5369 196.586 46.6222 196.586 46.7075C196.586 47.7315 196.714 48.6489 196.97 49.4595C197.269 50.2275 197.717 50.8462 198.314 51.3155C198.912 51.7422 199.637 51.9555 200.49 51.9555C201.045 51.9555 201.514 51.8702 201.898 51.6995C202.282 51.5289 202.624 51.3155 202.922 51.0595C203.221 50.7609 203.477 50.4835 203.69 50.2275C204.074 49.8435 204.373 49.6089 204.586 49.5235C204.842 49.3955 205.226 49.3315 205.738 49.3315H215.786C216.17 49.3315 216.49 49.4595 216.746 49.7155C217.045 49.9715 217.173 50.2915 217.13 50.6755C217.088 51.4435 216.725 52.3822 216.042 53.4915C215.36 54.5582 214.336 55.6035 212.97 56.6275C211.648 57.6515 209.941 58.5049 207.85 59.1875C205.76 59.8702 203.349 60.2115 200.618 60.2115ZM196.586 39.1555H204.522V39.0275C204.522 37.8755 204.373 36.8942 204.074 36.0835C203.776 35.2729 203.328 34.6755 202.73 34.2915C202.133 33.8649 201.408 33.6515 200.554 33.6515C199.701 33.6515 198.976 33.8649 198.378 34.2915C197.781 34.6755 197.333 35.2729 197.034 36.0835C196.736 36.8942 196.586 37.8755 196.586 39.0275V39.1555Z" fill="black"/>
<path d="M238.23 60.0001C237.761 60.0001 237.355 59.8508 237.014 59.5521C236.715 59.2108 236.566 58.8055 236.566 58.3361V16.2241C236.566 15.7548 236.715 15.3708 237.014 15.0721C237.355 14.7308 237.761 14.5601 238.23 14.5601H247.766C248.193 14.5601 248.577 14.7308 248.918 15.0721C249.259 15.3708 249.43 15.7548 249.43 16.2241V58.3361C249.43 58.8055 249.259 59.2108 248.918 59.5521C248.577 59.8508 248.193 60.0001 247.766 60.0001H238.23Z" fill="black"/>
<path d="M307.265 60.0001C306.625 60.0001 306.155 59.8295 305.857 59.4881C305.558 59.1468 305.302 58.7841 305.089 58.4001L292.865 28.7041C292.822 28.5335 292.801 28.3628 292.801 28.1921C292.801 27.8081 292.95 27.4668 293.249 27.1681C293.547 26.8695 293.889 26.7201 294.273 26.7201H303.361C303.958 26.7201 304.406 26.8908 304.705 27.2321C305.003 27.5308 305.217 27.8295 305.345 28.1281L311.489 45.4721L317.697 28.1281C317.825 27.8295 318.038 27.5308 318.337 27.2321C318.635 26.8908 319.083 26.7201 319.681 26.7201H328.705C329.131 26.7201 329.473 26.8695 329.729 27.1681C330.027 27.4668 330.177 27.8081 330.177 28.1921C330.177 28.3628 330.155 28.5335 330.113 28.7041L317.953 58.4001C317.782 58.7841 317.526 59.1468 317.185 59.4881C316.886 59.8295 316.417 60.0001 315.777 60.0001H307.265ZM349.49 60.6401C344.157 60.6401 339.911 59.2748 336.754 56.5441C333.639 53.7708 332.039 49.5468 331.954 43.8721C331.954 43.7015 331.954 43.4881 331.954 43.2321C331.954 42.9335 331.954 42.7201 331.954 42.5921C332.082 39.0508 332.85 36.0641 334.258 33.6321C335.709 31.1575 337.714 29.2801 340.274 28.0001C342.877 26.7201 345.927 26.0801 349.426 26.0801C353.351 26.0801 356.594 26.8695 359.154 28.4481C361.757 29.9841 363.698 32.0535 364.978 34.6561C366.258 37.2161 366.898 40.0961 366.898 43.2961V45.0881C366.898 45.5148 366.727 45.8988 366.386 46.2401C366.045 46.5815 365.639 46.7521 365.17 46.7521H345.458C345.458 46.7521 345.458 46.7948 345.458 46.8801C345.458 46.9655 345.458 47.0508 345.458 47.1361C345.458 48.1601 345.586 49.0775 345.842 49.8881C346.141 50.6561 346.589 51.2748 347.186 51.7441C347.783 52.1708 348.509 52.3841 349.362 52.3841C349.917 52.3841 350.386 52.2988 350.77 52.1281C351.154 51.9575 351.495 51.7441 351.794 51.4881C352.093 51.1895 352.349 50.9121 352.562 50.6561C352.946 50.2721 353.245 50.0375 353.458 49.9521C353.714 49.8241 354.098 49.7601 354.61 49.7601H364.658C365.042 49.7601 365.362 49.8881 365.618 50.1441C365.917 50.4001 366.045 50.7201 366.002 51.1041C365.959 51.8721 365.597 52.8108 364.914 53.9201C364.231 54.9868 363.207 56.0321 361.842 57.0561C360.519 58.0801 358.813 58.9335 356.722 59.6161C354.631 60.2988 352.221 60.6401 349.49 60.6401ZM345.458 39.5841H353.394V39.4561C353.394 38.3041 353.245 37.3228 352.946 36.5121C352.647 35.7015 352.199 35.1041 351.602 34.7201C351.005 34.2935 350.279 34.0801 349.426 34.0801C348.573 34.0801 347.847 34.2935 347.25 34.7201C346.653 35.1041 346.205 35.7015 345.906 36.5121C345.607 37.3228 345.458 38.3041 345.458 39.4561V39.5841Z" fill="black"/>
<path d="M272.4 31.4778L273.966 29.9244C278.187 25.738 285.09 25.7131 289.341 29.8692C293.572 34.0037 293.572 40.7068 289.341 44.8413L274.333 59.5095C273.265 60.553 271.535 60.553 270.467 59.5095L255.458 44.8413C251.228 40.7068 251.228 34.0037 255.458 29.8692C259.71 25.7131 266.613 25.738 270.834 29.9244L272.4 31.4778Z" fill="black"/>
<path d="M138.888 147.72C135.288 147.72 132.048 147.096 129.168 145.848C126.336 144.552 124.056 142.68 122.328 140.232C120.648 137.736 119.712 134.736 119.52 131.232C119.472 130.464 119.448 129.504 119.448 128.352C119.448 127.2 119.472 126.216 119.52 125.4C119.712 121.848 120.648 118.848 122.328 116.4C124.008 113.904 126.288 112.032 129.168 110.784C132.048 109.488 135.288 108.84 138.888 108.84C142.44 108.84 145.464 109.344 147.96 110.352C150.504 111.36 152.544 112.608 154.08 114.096C155.664 115.584 156.84 117.072 157.608 118.56C158.376 120.048 158.784 121.296 158.832 122.304C158.88 122.832 158.688 123.288 158.256 123.672C157.872 124.008 157.44 124.176 156.96 124.176H145.368C144.84 124.176 144.432 124.056 144.144 123.816C143.856 123.576 143.592 123.216 143.352 122.736C142.872 121.68 142.32 120.912 141.696 120.432C141.072 119.904 140.232 119.64 139.176 119.64C137.688 119.64 136.584 120.168 135.864 121.224C135.144 122.232 134.76 123.744 134.712 125.76C134.616 127.728 134.616 129.432 134.712 130.872C134.808 132.936 135.192 134.472 135.864 135.48C136.584 136.44 137.688 136.92 139.176 136.92C140.376 136.92 141.264 136.68 141.84 136.2C142.416 135.672 142.92 134.88 143.352 133.824C143.544 133.344 143.784 132.984 144.072 132.744C144.408 132.456 144.84 132.312 145.368 132.312H156.96C157.44 132.312 157.872 132.504 158.256 132.888C158.688 133.272 158.88 133.728 158.832 134.256C158.784 134.928 158.52 135.84 158.04 136.992C157.608 138.096 156.912 139.272 155.952 140.52C155.04 141.72 153.816 142.872 152.28 143.976C150.744 145.08 148.872 145.992 146.664 146.712C144.456 147.384 141.864 147.72 138.888 147.72ZM181.4 147.72C177.176 147.72 173.6 147.096 170.672 145.848C167.792 144.6 165.584 142.776 164.048 140.376C162.512 137.928 161.648 135 161.456 131.592C161.408 130.584 161.384 129.48 161.384 128.28C161.384 127.08 161.408 125.976 161.456 124.968C161.648 121.512 162.56 118.584 164.192 116.184C165.824 113.784 168.08 111.96 170.96 110.712C173.888 109.464 177.368 108.84 181.4 108.84C185.432 108.84 188.888 109.464 191.768 110.712C194.696 111.96 196.976 113.784 198.608 116.184C200.24 118.584 201.152 121.512 201.344 124.968C201.44 125.976 201.488 127.08 201.488 128.28C201.488 129.48 201.44 130.584 201.344 131.592C201.152 135 200.288 137.928 198.752 140.376C197.216 142.776 194.984 144.6 192.056 145.848C189.176 147.096 185.624 147.72 181.4 147.72ZM181.4 137.568C183.176 137.568 184.4 137.04 185.072 135.984C185.744 134.928 186.128 133.344 186.224 131.232C186.272 130.512 186.296 129.528 186.296 128.28C186.296 127.032 186.272 126.048 186.224 125.328C186.128 123.264 185.744 121.704 185.072 120.648C184.4 119.544 183.176 118.992 181.4 118.992C179.672 118.992 178.472 119.544 177.8 120.648C177.128 121.704 176.72 123.264 176.576 125.328C176.528 126.048 176.504 127.032 176.504 128.28C176.504 129.528 176.528 130.512 176.576 131.232C176.72 133.344 177.128 134.928 177.8 135.984C178.472 137.04 179.672 137.568 181.4 137.568ZM220.062 147.72C217.854 147.72 215.838 147.384 214.014 146.712C212.19 146.04 210.606 145.008 209.262 143.616C207.918 142.224 206.862 140.472 206.094 138.36C205.326 136.248 204.87 133.776 204.726 130.944C204.678 129.888 204.654 128.976 204.654 128.208C204.654 127.44 204.678 126.552 204.726 125.544C204.822 122.856 205.254 120.48 206.022 118.416C206.79 116.304 207.846 114.552 209.19 113.16C210.534 111.768 212.118 110.712 213.942 109.992C215.814 109.224 217.854 108.84 220.062 108.84C222.222 108.84 224.142 109.2 225.822 109.92C227.502 110.592 228.918 111.504 230.07 112.656V97.752C230.07 97.224 230.262 96.792 230.646 96.456C231.03 96.072 231.462 95.88 231.942 95.88H243.03C243.558 95.88 243.99 96.072 244.326 96.456C244.71 96.792 244.902 97.224 244.902 97.752V145.128C244.902 145.656 244.71 146.112 244.326 146.496C243.99 146.832 243.558 147 243.03 147H232.878C232.35 147 231.894 146.832 231.51 146.496C231.126 146.112 230.934 145.656 230.934 145.128V143.112C229.782 144.504 228.318 145.632 226.542 146.496C224.814 147.312 222.654 147.72 220.062 147.72ZM224.958 136.488C226.206 136.488 227.19 136.224 227.91 135.696C228.678 135.168 229.206 134.472 229.494 133.608C229.83 132.744 230.022 131.784 230.07 130.728C230.166 129.672 230.214 128.76 230.214 127.992C230.214 127.176 230.166 126.288 230.07 125.328C230.022 124.32 229.806 123.432 229.422 122.664C229.086 121.896 228.558 121.272 227.838 120.792C227.118 120.312 226.158 120.072 224.958 120.072C223.758 120.072 222.798 120.336 222.078 120.864C221.358 121.344 220.83 122.04 220.494 122.952C220.206 123.816 220.014 124.824 219.918 125.976C219.774 127.512 219.774 129.048 219.918 130.584C220.014 131.736 220.206 132.768 220.494 133.68C220.83 134.544 221.358 135.24 222.078 135.768C222.798 136.248 223.758 136.488 224.958 136.488ZM252.497 147C251.969 147 251.513 146.832 251.129 146.496C250.793 146.112 250.625 145.656 250.625 145.128V111.432C250.625 110.904 250.793 110.472 251.129 110.136C251.513 109.752 251.969 109.56 252.497 109.56H263.153C263.681 109.56 264.137 109.752 264.521 110.136C264.905 110.472 265.097 110.904 265.097 111.432V145.128C265.097 145.656 264.905 146.112 264.521 146.496C264.137 146.832 263.681 147 263.153 147H252.497ZM252.641 104.88C252.113 104.88 251.657 104.712 251.273 104.376C250.937 103.992 250.769 103.536 250.769 103.008V95.448C250.769 94.92 250.937 94.464 251.273 94.08C251.657 93.696 252.113 93.504 252.641 93.504H263.009C263.537 93.504 263.993 93.696 264.377 94.08C264.761 94.464 264.953 94.92 264.953 95.448V103.008C264.953 103.536 264.761 103.992 264.377 104.376C263.993 104.712 263.537 104.88 263.009 104.88H252.641ZM272.564 147C272.036 147 271.58 146.832 271.196 146.496C270.86 146.112 270.692 145.656 270.692 145.128V111.432C270.692 110.904 270.86 110.472 271.196 110.136C271.58 109.752 272.036 109.56 272.564 109.56H283.004C283.532 109.56 283.964 109.752 284.3 110.136C284.684 110.472 284.876 110.904 284.876 111.432V114.024C286.124 112.584 287.78 111.36 289.844 110.352C291.908 109.344 294.26 108.84 296.9 108.84C299.492 108.84 301.844 109.44 303.956 110.64C306.068 111.84 307.772 113.64 309.068 116.04C310.364 118.44 311.012 121.464 311.012 125.112V145.128C311.012 145.656 310.82 146.112 310.436 146.496C310.052 146.832 309.596 147 309.068 147H297.692C297.164 147 296.708 146.832 296.324 146.496C295.988 146.112 295.82 145.656 295.82 145.128V125.616C295.82 123.84 295.388 122.472 294.524 121.512C293.66 120.552 292.436 120.072 290.852 120.072C289.268 120.072 288.02 120.552 287.108 121.512C286.196 122.472 285.74 123.84 285.74 125.616V145.128C285.74 145.656 285.548 146.112 285.164 146.496C284.828 146.832 284.396 147 283.868 147H272.564ZM336.011 162.84C332.123 162.84 328.883 162.336 326.291 161.328C323.747 160.368 321.707 159.168 320.171 157.728C318.635 156.336 317.531 154.944 316.859 153.552C316.235 152.208 315.899 151.152 315.851 150.384C315.803 149.856 315.971 149.4 316.355 149.016C316.739 148.68 317.195 148.512 317.723 148.512H329.315C329.795 148.512 330.179 148.632 330.467 148.872C330.803 149.112 331.067 149.472 331.259 149.952C331.499 150.384 331.763 150.816 332.051 151.248C332.387 151.68 332.843 152.016 333.419 152.256C333.995 152.496 334.739 152.616 335.651 152.616C336.755 152.616 337.643 152.424 338.315 152.04C339.035 151.656 339.563 151.056 339.899 150.24C340.283 149.424 340.475 148.344 340.475 147V142.176C339.323 143.28 337.907 144.168 336.227 144.84C334.595 145.464 332.651 145.776 330.395 145.776C328.043 145.776 325.931 145.464 324.059 144.84C322.235 144.168 320.675 143.16 319.379 141.816C318.131 140.472 317.123 138.768 316.355 136.704C315.635 134.64 315.227 132.168 315.131 129.288C315.083 128.04 315.083 126.792 315.131 125.544C315.227 122.856 315.635 120.48 316.355 118.416C317.075 116.304 318.083 114.552 319.379 113.16C320.675 111.768 322.235 110.712 324.059 109.992C325.931 109.224 328.043 108.84 330.395 108.84C332.891 108.84 335.051 109.32 336.875 110.28C338.699 111.192 340.187 112.392 341.339 113.88V111.432C341.339 110.904 341.507 110.472 341.843 110.136C342.227 109.752 342.683 109.56 343.211 109.56H353.651C354.179 109.56 354.611 109.752 354.947 110.136C355.331 110.472 355.523 110.904 355.523 111.432L355.595 145.848C355.595 149.736 354.755 152.928 353.075 155.424C351.443 157.92 349.163 159.768 346.235 160.968C343.307 162.216 339.899 162.84 336.011 162.84ZM335.363 134.832C336.515 134.832 337.451 134.592 338.171 134.112C338.891 133.632 339.419 133.008 339.755 132.24C340.139 131.424 340.379 130.512 340.475 129.504C340.523 129.072 340.547 128.376 340.547 127.416C340.547 126.456 340.523 125.784 340.475 125.4C340.379 124.392 340.139 123.504 339.755 122.736C339.419 121.92 338.891 121.272 338.171 120.792C337.451 120.312 336.515 120.072 335.363 120.072C334.115 120.072 333.131 120.336 332.411 120.864C331.691 121.344 331.163 122.04 330.827 122.952C330.539 123.816 330.347 124.824 330.251 125.976C330.155 126.984 330.155 127.968 330.251 128.928C330.347 130.08 330.539 131.112 330.827 132.024C331.163 132.888 331.691 133.584 332.411 134.112C333.131 134.592 334.115 134.832 335.363 134.832Z" fill="black"/>
</g>
<defs>
<clipPath id="clip0_481_814">
<rect width="497" height="260" fill="white"/>
</clipPath>
</defs>
</svg>
