<svg width="46" height="41" viewBox="0 0 46 41" fill="none" xmlns="http://www.w3.org/2000/svg">
<path d="M12.4001 41H2.95201C2.43629 40.9994 1.92972 40.8638 1.48261 40.6068C1.0355 40.3498 0.663427 39.9803 0.403351 39.5349C0.143276 39.0896 0.00425321 38.584 9.60511e-05 38.0683C-0.0040611 37.5526 0.126792 37.0448 0.379654 36.5953L20.079 1.50731C20.2119 1.26603 20.3774 1.0442 20.5709 0.848072C20.7565 0.663324 20.9664 0.50476 21.1949 0.376767C21.6395 0.129672 22.1398 0 22.6484 0C23.1571 0 23.6574 0.129672 24.102 0.376767C24.33 0.504795 24.5394 0.663362 24.7245 0.848072C24.925 1.04269 25.097 1.26463 25.2355 1.50731L44.9378 36.5909C45.1908 37.0407 45.3217 37.5489 45.3173 38.065C45.313 38.581 45.1736 39.087 44.913 39.5324C44.6524 39.9779 44.2797 40.3474 43.832 40.604C43.3842 40.8608 42.8771 40.9957 42.361 40.9956H32.9202C31.9387 39.1323 30.4607 37.577 28.6499 36.5018C26.839 35.4267 24.7659 34.8736 22.6602 34.9039C20.5547 34.8735 18.482 35.4262 16.6712 36.5008C14.8604 37.5754 13.3822 39.13 12.4001 40.9927V41Z" fill="url(#paint0_linear_909_678)"/>
<path opacity="0.27" d="M20.166 27.0404L22.8265 23.6914H24.2081L21.7517 27.039L20.166 27.0404Z" fill="url(#paint1_linear_909_678)"/>
<path opacity="0.22" d="M22.2725 18.7148H26.4291L25.2545 20.1831L21.208 20.0833L22.2725 18.7148Z" fill="url(#paint2_linear_909_678)"/>
<path d="M22.2818 18.7266L17.6862 24.554C17.4631 24.7907 17.3389 25.1037 17.3389 25.4291C17.3389 25.7544 17.4631 26.0674 17.6862 26.3041C17.9503 26.6004 18.2825 26.8278 18.6543 26.9667C19.026 27.1056 19.426 27.1519 19.8196 27.1014L23.1437 23.0021L26.4443 18.7266H22.2818Z" fill="white"/>
<path d="M22.8323 23.7109H26.6145C26.6145 23.7109 27.723 23.9811 28.0108 24.6462C28.1761 25.0894 28.1761 25.5773 28.0108 26.0205C28.0108 26.0205 27.6334 27.0394 26.7481 27.0394H20.1895L22.8323 23.7109Z" fill="white"/>
<path d="M19.1837 15.373H25.7423C26.1461 15.373 26.5334 15.5335 26.8189 15.819C27.1045 16.1045 27.2649 16.4918 27.2649 16.8956C27.2649 17.0956 27.2255 17.2935 27.149 17.4783C27.0725 17.663 26.9603 17.8308 26.8189 17.9722C26.6776 18.1136 26.5097 18.2258 26.325 18.3023C26.1403 18.3788 25.9423 18.4182 25.7423 18.4182H19.1837C18.9838 18.4182 18.7858 18.3788 18.601 18.3023C18.4163 18.2258 18.2485 18.1136 18.1071 17.9722C17.9657 17.8308 17.8535 17.663 17.777 17.4783C17.7005 17.2935 17.6611 17.0956 17.6611 16.8956C17.6611 16.4918 17.8215 16.1045 18.1071 15.819C18.3926 15.5335 18.7799 15.373 19.1837 15.373Z" fill="white"/>
<defs>
<linearGradient id="paint0_linear_909_678" x1="-67.2057" y1="89.626" x2="-67.2057" y2="89.503" gradientUnits="userSpaceOnUse">
<stop stop-color="#323232"/>
<stop offset="1" stop-color="#242424"/>
</linearGradient>
<linearGradient id="paint1_linear_909_678" x1="-65.3966" y1="87.8389" x2="-65.4157" y2="87.8659" gradientUnits="userSpaceOnUse">
<stop stop-color="white"/>
<stop offset="1" stop-color="#A7ACAD"/>
</linearGradient>
<linearGradient id="paint2_linear_909_678" x1="-65.8845" y1="85.5917" x2="-65.8845" y2="85.4683" gradientUnits="userSpaceOnUse">
<stop stop-color="#A7ACAD"/>
<stop offset="1" stop-color="white"/>
</linearGradient>
</defs>
</svg>
