<svg width="79" height="10" viewBox="0 0 79 10" fill="none" xmlns="http://www.w3.org/2000/svg">
<path d="M0.394395 9.2334L3.41462 0.974971H5.1135L8.13372 9.2334H6.52923L5.86855 7.32216H2.64777L1.97529 9.2334H0.394395ZM3.06069 6.14239H5.45563L4.25226 2.70924L3.06069 6.14239ZM8.59586 9.2334V8.07722L12.3947 2.23733H8.63125V0.974971H14.1408V2.13115L10.3183 7.97104H14.1644V9.2334H8.59586ZM17.6293 9.2334V0.974971H20.6849C21.3455 0.974971 21.8922 1.08508 22.3248 1.30531C22.7573 1.52553 23.0798 1.82834 23.2922 2.21374C23.5045 2.59913 23.6107 3.03171 23.6107 3.51149C23.6107 3.96767 23.5085 4.38845 23.304 4.77385C23.0995 5.15138 22.7809 5.45812 22.3484 5.69407C21.9158 5.92216 21.3613 6.03621 20.6849 6.03621H19.1394V9.2334H17.6293ZM19.1394 4.80924H20.5905C21.1175 4.80924 21.495 4.6952 21.7231 4.46711C21.959 4.23115 22.077 3.91261 22.077 3.51149C22.077 3.1025 21.959 2.78396 21.7231 2.55587C21.495 2.31992 21.1175 2.20194 20.5905 2.20194H19.1394V4.80924ZM24.4061 9.2334V3.38171H25.7511L25.8927 4.4789C26.105 4.10138 26.3921 3.8025 26.7539 3.58227C27.1236 3.35418 27.5561 3.24014 28.0516 3.24014V4.83284H27.6269C27.2966 4.83284 27.0016 4.88396 26.7421 4.98621C26.4825 5.08845 26.2781 5.26542 26.1286 5.51711C25.987 5.76879 25.9163 6.11879 25.9163 6.56711V9.2334H24.4061ZM31.4694 9.37497C30.8795 9.37497 30.3565 9.24913 29.9003 8.99744C29.4441 8.74576 29.0863 8.39183 28.8267 7.93565C28.5672 7.47947 28.4374 6.9525 28.4374 6.35475C28.4374 5.74913 28.5632 5.21036 28.8149 4.73845C29.0745 4.26654 29.4284 3.90081 29.8767 3.64126C30.3329 3.37385 30.8677 3.24014 31.4812 3.24014C32.0554 3.24014 32.5627 3.36598 33.0031 3.61767C33.4436 3.86935 33.7857 4.21542 34.0295 4.65587C34.2812 5.08845 34.407 5.57216 34.407 6.10699C34.407 6.19351 34.4031 6.28396 34.3952 6.37834C34.3952 6.47272 34.3913 6.57104 34.3834 6.67329H29.9357C29.9672 7.12947 30.1245 7.48733 30.4076 7.74688C30.6986 8.00643 31.0486 8.13621 31.4576 8.13621C31.7643 8.13621 32.02 8.06935 32.2245 7.93565C32.4368 7.79407 32.5941 7.61317 32.6964 7.39295H34.2301C34.12 7.76261 33.9351 8.10081 33.6756 8.40756C33.4239 8.70643 33.1093 8.94239 32.7318 9.11542C32.3621 9.28845 31.9413 9.37497 31.4694 9.37497ZM31.4812 4.46711C31.1115 4.46711 30.7851 4.57329 30.502 4.78565C30.2188 4.99014 30.0379 5.30475 29.9593 5.72947H32.8733C32.8497 5.34407 32.7082 5.03733 32.4486 4.80924C32.1891 4.58115 31.8666 4.46711 31.4812 4.46711ZM35.3232 9.2334V3.38171H36.6564L36.7861 4.17216C36.9749 3.88902 37.2226 3.66486 37.5294 3.49969C37.844 3.32666 38.2058 3.24014 38.6148 3.24014C39.5193 3.24014 40.1603 3.59014 40.5378 4.29014C40.7502 3.96767 41.0333 3.71205 41.3873 3.52329C41.7491 3.33452 42.1423 3.24014 42.567 3.24014C43.3299 3.24014 43.9159 3.46823 44.3249 3.92441C44.7339 4.38059 44.9384 5.04913 44.9384 5.93003V9.2334H43.4283V6.0716C43.4283 5.56823 43.33 5.18284 43.1333 4.91542C42.9446 4.64801 42.6496 4.5143 42.2485 4.5143C41.8395 4.5143 41.5092 4.66374 41.2575 4.96261C41.0137 5.26149 40.8917 5.67834 40.8917 6.21317V9.2334H39.3816V6.0716C39.3816 5.56823 39.2833 5.18284 39.0867 4.91542C38.8901 4.64801 38.5873 4.5143 38.1783 4.5143C37.7771 4.5143 37.4507 4.66374 37.1991 4.96261C36.9552 5.26149 36.8333 5.67834 36.8333 6.21317V9.2334H35.3232ZM46.8322 2.47329C46.5569 2.47329 46.3288 2.3907 46.1479 2.22553C45.9749 2.06036 45.8884 1.85194 45.8884 1.60025C45.8884 1.34857 45.9749 1.14407 46.1479 0.986769C46.3288 0.821601 46.5569 0.739016 46.8322 0.739016C47.1075 0.739016 47.3316 0.821601 47.5047 0.986769C47.6856 1.14407 47.776 1.34857 47.776 1.60025C47.776 1.85194 47.6856 2.06036 47.5047 2.22553C47.3316 2.3907 47.1075 2.47329 46.8322 2.47329ZM46.0771 9.2334V3.38171H47.5872V9.2334H46.0771ZM51.0039 9.37497C50.2724 9.37497 49.7061 9.14688 49.305 8.6907C48.9118 8.23452 48.7151 7.56598 48.7151 6.68508V3.38171H50.2134V6.54351C50.2134 7.04688 50.3157 7.43227 50.5202 7.69969C50.7247 7.96711 51.0472 8.10081 51.4876 8.10081C51.9045 8.10081 52.2466 7.95138 52.514 7.6525C52.7893 7.35362 52.9269 6.93677 52.9269 6.40194V3.38171H54.437V9.2334H53.1039L52.9859 8.24239C52.805 8.58845 52.5415 8.86374 52.1955 9.06823C51.8573 9.27272 51.4601 9.37497 51.0039 9.37497ZM55.6333 9.2334V3.38171H56.9665L57.0962 4.17216C57.285 3.88902 57.5328 3.66486 57.8395 3.49969C58.1541 3.32666 58.5159 3.24014 58.9249 3.24014C59.8294 3.24014 60.4704 3.59014 60.8479 4.29014C61.0603 3.96767 61.3434 3.71205 61.6974 3.52329C62.0592 3.33452 62.4524 3.24014 62.8771 3.24014C63.6401 3.24014 64.226 3.46823 64.635 3.92441C65.044 4.38059 65.2485 5.04913 65.2485 5.93003V9.2334H63.7384V6.0716C63.7384 5.56823 63.6401 5.18284 63.4434 4.91542C63.2547 4.64801 62.9597 4.5143 62.5586 4.5143C62.1496 4.5143 61.8193 4.66374 61.5676 4.96261C61.3238 5.26149 61.2019 5.67834 61.2019 6.21317V9.2334H59.6917V6.0716C59.6917 5.56823 59.5934 5.18284 59.3968 4.91542C59.2002 4.64801 58.8974 4.5143 58.4884 4.5143C58.0872 4.5143 57.7608 4.66374 57.5092 4.96261C57.2653 5.26149 57.1434 5.67834 57.1434 6.21317V9.2334H55.6333ZM73.8924 9.70263L72.9204 8.73903L75.4719 6.1876H69.4934V4.77154H75.4719L72.9204 2.22429L73.8924 1.25651L78.1155 5.47957L73.8924 9.70263Z" fill="black"/>
</svg>
