<svg width="156" height="10" viewBox="0 0 156 10" fill="none" xmlns="http://www.w3.org/2000/svg">
<path d="M3.19439 9.144C2.57839 9.144 2.03439 9.04 1.56239 8.832C1.09039 8.616 0.718391 8.312 0.446391 7.92C0.174391 7.52 0.0343913 7.036 0.0263913 6.468H1.64639C1.66239 6.86 1.80239 7.192 2.06639 7.464C2.33839 7.728 2.71039 7.86 3.18239 7.86C3.59039 7.86 3.91439 7.764 4.15439 7.572C4.39439 7.372 4.51439 7.108 4.51439 6.78C4.51439 6.436 4.40639 6.168 4.19039 5.976C3.98239 5.784 3.70239 5.628 3.35039 5.508C2.99839 5.388 2.62239 5.26 2.22239 5.124C1.57439 4.9 1.07839 4.612 0.734391 4.26C0.398391 3.908 0.230391 3.44 0.230391 2.856C0.222391 2.36 0.338391 1.936 0.578391 1.584C0.826391 1.224 1.16239 0.947999 1.58639 0.756C2.01039 0.556 2.49839 0.456 3.05039 0.456C3.61039 0.456 4.10239 0.556 4.52639 0.756C4.95839 0.955999 5.29439 1.236 5.53439 1.596C5.78239 1.956 5.91439 2.384 5.93039 2.88H4.28639C4.27839 2.584 4.16239 2.324 3.93839 2.1C3.72239 1.868 3.41839 1.752 3.02639 1.752C2.69039 1.744 2.40639 1.828 2.17439 2.004C1.95039 2.172 1.83839 2.42 1.83839 2.748C1.83839 3.028 1.92639 3.252 2.10239 3.42C2.27839 3.58 2.51839 3.716 2.82239 3.828C3.12639 3.94 3.47439 4.06 3.86639 4.188C4.28239 4.332 4.66239 4.5 5.00639 4.692C5.35039 4.884 5.62639 5.14 5.83439 5.46C6.04239 5.772 6.14639 6.176 6.14639 6.672C6.14639 7.112 6.03439 7.52 5.81039 7.896C5.58639 8.272 5.25439 8.576 4.81439 8.808C4.37439 9.032 3.83439 9.144 3.19439 9.144ZM9.74255 9C9.11855 9 8.61855 8.848 8.24255 8.544C7.86655 8.24 7.67855 7.7 7.67855 6.924V4.332H6.65855V3.048H7.67855L7.85855 1.452H9.21455V3.048H10.8225V4.332H9.21455V6.936C9.21455 7.224 9.27455 7.424 9.39455 7.536C9.52255 7.64 9.73855 7.692 10.0425 7.692H10.7865V9H9.74255ZM12.6093 2.124C12.3293 2.124 12.0973 2.04 11.9133 1.872C11.7373 1.704 11.6493 1.492 11.6493 1.236C11.6493 0.98 11.7373 0.772 11.9133 0.611999C12.0973 0.444 12.3293 0.36 12.6093 0.36C12.8893 0.36 13.1173 0.444 13.2933 0.611999C13.4773 0.772 13.5693 0.98 13.5693 1.236C13.5693 1.492 13.4773 1.704 13.2933 1.872C13.1173 2.04 12.8893 2.124 12.6093 2.124ZM11.8413 9V3.048H13.3773V9H11.8413ZM14.6205 9V0.36H16.1565V9H14.6205ZM17.366 9V0.36H18.902V9H17.366ZM25.5269 9.144C24.9189 9.144 24.3829 9.012 23.9189 8.748C23.4549 8.484 23.0869 8.116 22.8149 7.644C22.5509 7.172 22.4189 6.632 22.4189 6.024C22.4189 5.416 22.5509 4.876 22.8149 4.404C23.0869 3.932 23.4549 3.564 23.9189 3.3C24.3829 3.036 24.9189 2.904 25.5269 2.904C26.2869 2.904 26.9269 3.104 27.4469 3.504C27.9669 3.896 28.2989 4.44 28.4429 5.136H26.8229C26.7429 4.848 26.5829 4.624 26.3429 4.464C26.1109 4.296 25.8349 4.212 25.5149 4.212C25.0909 4.212 24.7309 4.372 24.4349 4.692C24.1389 5.012 23.9909 5.456 23.9909 6.024C23.9909 6.592 24.1389 7.036 24.4349 7.356C24.7309 7.676 25.0909 7.836 25.5149 7.836C25.8349 7.836 26.1109 7.756 26.3429 7.596C26.5829 7.436 26.7429 7.208 26.8229 6.912H28.4429C28.2989 7.584 27.9669 8.124 27.4469 8.532C26.9269 8.94 26.2869 9.144 25.5269 9.144ZM32.3022 9.144C31.7262 9.144 31.2062 9.012 30.7422 8.748C30.2862 8.484 29.9222 8.12 29.6502 7.656C29.3862 7.184 29.2542 6.64 29.2542 6.024C29.2542 5.408 29.3902 4.868 29.6622 4.404C29.9342 3.932 30.2982 3.564 30.7542 3.3C31.2182 3.036 31.7382 2.904 32.3142 2.904C32.8822 2.904 33.3942 3.036 33.8502 3.3C34.3142 3.564 34.6782 3.932 34.9422 4.404C35.2142 4.868 35.3502 5.408 35.3502 6.024C35.3502 6.64 35.2142 7.184 34.9422 7.656C34.6782 8.12 34.3142 8.484 33.8502 8.748C33.3862 9.012 32.8702 9.144 32.3022 9.144ZM32.3022 7.812C32.7022 7.812 33.0502 7.664 33.3462 7.368C33.6422 7.064 33.7902 6.616 33.7902 6.024C33.7902 5.432 33.6422 4.988 33.3462 4.692C33.0502 4.388 32.7062 4.236 32.3142 4.236C31.9062 4.236 31.5542 4.388 31.2582 4.692C30.9702 4.988 30.8262 5.432 30.8262 6.024C30.8262 6.616 30.9702 7.064 31.2582 7.368C31.5542 7.664 31.9022 7.812 32.3022 7.812ZM36.3635 9V3.048H37.7195L37.8395 4.056C38.0235 3.704 38.2875 3.424 38.6315 3.216C38.9835 3.008 39.3955 2.904 39.8675 2.904C40.6035 2.904 41.1755 3.136 41.5835 3.6C41.9915 4.064 42.1955 4.744 42.1955 5.64V9H40.6595V5.784C40.6595 5.272 40.5555 4.88 40.3475 4.608C40.1395 4.336 39.8155 4.2 39.3755 4.2C38.9435 4.2 38.5875 4.352 38.3075 4.656C38.0355 4.96 37.8995 5.384 37.8995 5.928V9H36.3635ZM43.5803 9V4.332H42.7643V3.048H43.5803V2.352C43.5803 1.632 43.7603 1.12 44.1203 0.816C44.4883 0.512 44.9843 0.36 45.6083 0.36H46.2683V1.668H45.8483C45.5843 1.668 45.3963 1.72 45.2843 1.824C45.1723 1.928 45.1163 2.104 45.1163 2.352V3.048H46.4003V4.332H45.1163V9H43.5803ZM49.4888 9.144C48.7448 9.144 48.1688 8.912 47.7608 8.448C47.3608 7.984 47.1608 7.304 47.1608 6.408V3.048H48.6848V6.264C48.6848 6.776 48.7888 7.168 48.9968 7.44C49.2048 7.712 49.5328 7.848 49.9808 7.848C50.4048 7.848 50.7528 7.696 51.0248 7.392C51.3048 7.088 51.4448 6.664 51.4448 6.12V3.048H52.9808V9H51.6248L51.5048 7.992C51.3208 8.344 51.0528 8.624 50.7008 8.832C50.3568 9.04 49.9528 9.144 49.4888 9.144ZM56.6576 9.144C56.1296 9.144 55.6656 9.06 55.2656 8.892C54.8656 8.716 54.5456 8.476 54.3056 8.172C54.0656 7.868 53.9216 7.516 53.8736 7.116H55.4216C55.4696 7.348 55.5976 7.548 55.8056 7.716C56.0216 7.876 56.2976 7.956 56.6336 7.956C56.9696 7.956 57.2136 7.888 57.3656 7.752C57.5256 7.616 57.6056 7.46 57.6056 7.284C57.6056 7.028 57.4936 6.856 57.2696 6.768C57.0456 6.672 56.7336 6.58 56.3336 6.492C56.0776 6.436 55.8176 6.368 55.5536 6.288C55.2896 6.208 55.0456 6.108 54.8216 5.988C54.6056 5.86 54.4296 5.7 54.2936 5.508C54.1576 5.308 54.0896 5.064 54.0896 4.776C54.0896 4.248 54.2976 3.804 54.7136 3.444C55.1376 3.084 55.7296 2.904 56.4896 2.904C57.1936 2.904 57.7536 3.068 58.1696 3.396C58.5936 3.724 58.8456 4.176 58.9256 4.752H57.4736C57.3856 4.312 57.0536 4.092 56.4776 4.092C56.1896 4.092 55.9656 4.148 55.8056 4.26C55.6536 4.372 55.5776 4.512 55.5776 4.68C55.5776 4.856 55.6936 4.996 55.9256 5.1C56.1576 5.204 56.4656 5.3 56.8496 5.388C57.2656 5.484 57.6456 5.592 57.9896 5.712C58.3416 5.824 58.6216 5.996 58.8296 6.228C59.0376 6.452 59.1416 6.776 59.1416 7.2C59.1496 7.568 59.0536 7.9 58.8536 8.196C58.6536 8.492 58.3656 8.724 57.9896 8.892C57.6136 9.06 57.1696 9.144 56.6576 9.144ZM63.0343 9.144C62.4343 9.144 61.9023 9.016 61.4383 8.76C60.9743 8.504 60.6103 8.144 60.3463 7.68C60.0823 7.216 59.9503 6.68 59.9503 6.072C59.9503 5.456 60.0783 4.908 60.3343 4.428C60.5983 3.948 60.9583 3.576 61.4143 3.312C61.8783 3.04 62.4223 2.904 63.0463 2.904C63.6303 2.904 64.1463 3.032 64.5943 3.288C65.0423 3.544 65.3903 3.896 65.6383 4.344C65.8943 4.784 66.0223 5.276 66.0223 5.82C66.0223 5.908 66.0183 6 66.0103 6.096C66.0103 6.192 66.0063 6.292 65.9983 6.396H61.4743C61.5063 6.86 61.6663 7.224 61.9543 7.488C62.2503 7.752 62.6063 7.884 63.0223 7.884C63.3343 7.884 63.5943 7.816 63.8023 7.68C64.0183 7.536 64.1783 7.352 64.2823 7.128H65.8423C65.7303 7.504 65.5423 7.848 65.2783 8.16C65.0223 8.464 64.7023 8.704 64.3183 8.88C63.9423 9.056 63.5143 9.144 63.0343 9.144ZM63.0463 4.152C62.6703 4.152 62.3383 4.26 62.0503 4.476C61.7623 4.684 61.5783 5.004 61.4983 5.436H64.4623C64.4383 5.044 64.2943 4.732 64.0303 4.5C63.7663 4.268 63.4383 4.152 63.0463 4.152ZM69.6901 9.144C69.1301 9.144 68.6301 9.008 68.1901 8.736C67.7501 8.464 67.4021 8.092 67.1461 7.62C66.8901 7.148 66.7621 6.612 66.7621 6.012C66.7621 5.412 66.8901 4.88 67.1461 4.416C67.4021 3.944 67.7501 3.576 68.1901 3.312C68.6301 3.04 69.1301 2.904 69.6901 2.904C70.1381 2.904 70.5301 2.988 70.8661 3.156C71.2021 3.324 71.4741 3.56 71.6821 3.864V0.36H73.2181V9H71.8501L71.6821 8.148C71.4901 8.412 71.2341 8.644 70.9141 8.844C70.6021 9.044 70.1941 9.144 69.6901 9.144ZM70.0141 7.8C70.5101 7.8 70.9141 7.636 71.2261 7.308C71.5461 6.972 71.7061 6.544 71.7061 6.024C71.7061 5.504 71.5461 5.08 71.2261 4.752C70.9141 4.416 70.5101 4.248 70.0141 4.248C69.5261 4.248 69.1221 4.412 68.8021 4.74C68.4821 5.068 68.3221 5.492 68.3221 6.012C68.3221 6.532 68.4821 6.96 68.8021 7.296C69.1221 7.632 69.5261 7.8 70.0141 7.8ZM75.2863 6.384L75.2383 4.404H75.7903C76.1983 4.404 76.5703 4.368 76.9063 4.296C77.2423 4.224 77.5103 4.084 77.7103 3.876C77.9103 3.668 78.0103 3.364 78.0103 2.964C78.0103 2.58 77.8943 2.28 77.6623 2.064C77.4303 1.84 77.1223 1.728 76.7383 1.728C76.3383 1.728 76.0263 1.84 75.8023 2.064C75.5783 2.28 75.4663 2.576 75.4663 2.952H74.0143C74.0063 2.472 74.1103 2.044 74.3263 1.668C74.5423 1.292 74.8543 0.995999 75.2623 0.779999C75.6783 0.564 76.1743 0.456 76.7503 0.456C77.2863 0.456 77.7583 0.556 78.1663 0.756C78.5823 0.955999 78.9063 1.244 79.1383 1.62C79.3783 1.988 79.4983 2.44 79.4983 2.976C79.4983 3.528 79.3743 3.984 79.1263 4.344C78.8863 4.704 78.5543 4.972 78.1303 5.148C77.7143 5.324 77.2303 5.416 76.6783 5.424L76.6423 6.384H75.2863ZM75.9703 9.084C75.6903 9.084 75.4583 8.996 75.2743 8.82C75.0983 8.644 75.0103 8.432 75.0103 8.184C75.0103 7.928 75.0983 7.712 75.2743 7.536C75.4583 7.36 75.6903 7.272 75.9703 7.272C76.2503 7.272 76.4783 7.36 76.6543 7.536C76.8303 7.712 76.9183 7.928 76.9183 8.184C76.9183 8.432 76.8303 8.644 76.6543 8.82C76.4783 8.996 76.2503 9.084 75.9703 9.084ZM86.7298 9.144C85.8818 9.144 85.1538 8.964 84.5458 8.604C83.9378 8.236 83.4698 7.728 83.1418 7.08C82.8138 6.424 82.6498 5.668 82.6498 4.812C82.6498 3.956 82.8138 3.2 83.1418 2.544C83.4698 1.888 83.9378 1.376 84.5458 1.008C85.1538 0.64 85.8818 0.456 86.7298 0.456C87.7378 0.456 88.5618 0.708 89.2018 1.212C89.8498 1.708 90.2538 2.408 90.4138 3.312H88.7218C88.6178 2.856 88.3938 2.5 88.0498 2.244C87.7138 1.98 87.2658 1.848 86.7058 1.848C85.9298 1.848 85.3218 2.112 84.8818 2.64C84.4418 3.168 84.2218 3.892 84.2218 4.812C84.2218 5.732 84.4418 6.456 84.8818 6.984C85.3218 7.504 85.9298 7.764 86.7058 7.764C87.2658 7.764 87.7138 7.644 88.0498 7.404C88.3938 7.156 88.6178 6.816 88.7218 6.384H90.4138C90.2538 7.248 89.8498 7.924 89.2018 8.412C88.5618 8.9 87.7378 9.144 86.7298 9.144ZM94.2334 9.144C93.6574 9.144 93.1374 9.012 92.6734 8.748C92.2174 8.484 91.8534 8.12 91.5814 7.656C91.3174 7.184 91.1854 6.64 91.1854 6.024C91.1854 5.408 91.3214 4.868 91.5934 4.404C91.8654 3.932 92.2294 3.564 92.6854 3.3C93.1494 3.036 93.6694 2.904 94.2454 2.904C94.8134 2.904 95.3254 3.036 95.7814 3.3C96.2454 3.564 96.6094 3.932 96.8734 4.404C97.1454 4.868 97.2814 5.408 97.2814 6.024C97.2814 6.64 97.1454 7.184 96.8734 7.656C96.6094 8.12 96.2454 8.484 95.7814 8.748C95.3174 9.012 94.8014 9.144 94.2334 9.144ZM94.2334 7.812C94.6334 7.812 94.9814 7.664 95.2774 7.368C95.5734 7.064 95.7214 6.616 95.7214 6.024C95.7214 5.432 95.5734 4.988 95.2774 4.692C94.9814 4.388 94.6374 4.236 94.2454 4.236C93.8374 4.236 93.4854 4.388 93.1894 4.692C92.9014 4.988 92.7574 5.432 92.7574 6.024C92.7574 6.616 92.9014 7.064 93.1894 7.368C93.4854 7.664 93.8334 7.812 94.2334 7.812ZM98.2948 9V3.048H99.6508L99.7708 4.056C99.9548 3.704 100.219 3.424 100.563 3.216C100.915 3.008 101.327 2.904 101.799 2.904C102.535 2.904 103.107 3.136 103.515 3.6C103.923 4.064 104.127 4.744 104.127 5.64V9H102.591V5.784C102.591 5.272 102.487 4.88 102.279 4.608C102.071 4.336 101.747 4.2 101.307 4.2C100.875 4.2 100.519 4.352 100.239 4.656C99.9668 4.96 99.8308 5.384 99.8308 5.928V9H98.2948ZM107.888 9C107.264 9 106.764 8.848 106.388 8.544C106.012 8.24 105.824 7.7 105.824 6.924V4.332H104.804V3.048H105.824L106.004 1.452H107.36V3.048H108.968V4.332H107.36V6.936C107.36 7.224 107.42 7.424 107.54 7.536C107.668 7.64 107.884 7.692 108.188 7.692H108.932V9H107.888ZM111.978 9.144C111.466 9.144 111.046 9.064 110.718 8.904C110.39 8.736 110.146 8.516 109.986 8.244C109.826 7.972 109.746 7.672 109.746 7.344C109.746 6.792 109.962 6.344 110.394 6C110.826 5.656 111.474 5.484 112.338 5.484H113.85V5.34C113.85 4.932 113.734 4.632 113.502 4.44C113.27 4.248 112.982 4.152 112.638 4.152C112.326 4.152 112.054 4.228 111.822 4.38C111.59 4.524 111.446 4.74 111.39 5.028H109.89C109.93 4.596 110.074 4.22 110.322 3.9C110.578 3.58 110.906 3.336 111.306 3.168C111.706 2.992 112.154 2.904 112.65 2.904C113.498 2.904 114.166 3.116 114.654 3.54C115.142 3.964 115.386 4.564 115.386 5.34V9H114.078L113.934 8.04C113.758 8.36 113.51 8.624 113.19 8.832C112.878 9.04 112.474 9.144 111.978 9.144ZM112.326 7.944C112.766 7.944 113.106 7.8 113.346 7.512C113.594 7.224 113.75 6.868 113.814 6.444H112.506C112.098 6.444 111.806 6.52 111.63 6.672C111.454 6.816 111.366 6.996 111.366 7.212C111.366 7.444 111.454 7.624 111.63 7.752C111.806 7.88 112.038 7.944 112.326 7.944ZM119.408 9.144C118.8 9.144 118.264 9.012 117.8 8.748C117.336 8.484 116.968 8.116 116.696 7.644C116.432 7.172 116.3 6.632 116.3 6.024C116.3 5.416 116.432 4.876 116.696 4.404C116.968 3.932 117.336 3.564 117.8 3.3C118.264 3.036 118.8 2.904 119.408 2.904C120.168 2.904 120.808 3.104 121.328 3.504C121.848 3.896 122.18 4.44 122.324 5.136H120.704C120.624 4.848 120.464 4.624 120.224 4.464C119.992 4.296 119.716 4.212 119.396 4.212C118.972 4.212 118.612 4.372 118.316 4.692C118.02 5.012 117.872 5.456 117.872 6.024C117.872 6.592 118.02 7.036 118.316 7.356C118.612 7.676 118.972 7.836 119.396 7.836C119.716 7.836 119.992 7.756 120.224 7.596C120.464 7.436 120.624 7.208 120.704 6.912H122.324C122.18 7.584 121.848 8.124 121.328 8.532C120.808 8.94 120.168 9.144 119.408 9.144ZM125.897 9C125.273 9 124.773 8.848 124.397 8.544C124.021 8.24 123.833 7.7 123.833 6.924V4.332H122.813V3.048H123.833L124.013 1.452H125.369V3.048H126.977V4.332H125.369V6.936C125.369 7.224 125.429 7.424 125.549 7.536C125.677 7.64 125.893 7.692 126.197 7.692H126.941V9H125.897ZM132.668 9.144C131.924 9.144 131.348 8.912 130.94 8.448C130.54 7.984 130.34 7.304 130.34 6.408V3.048H131.864V6.264C131.864 6.776 131.968 7.168 132.176 7.44C132.384 7.712 132.712 7.848 133.16 7.848C133.584 7.848 133.932 7.696 134.204 7.392C134.484 7.088 134.624 6.664 134.624 6.12V3.048H136.16V9H134.804L134.684 7.992C134.5 8.344 134.232 8.624 133.88 8.832C133.536 9.04 133.132 9.144 132.668 9.144ZM139.836 9.144C139.308 9.144 138.844 9.06 138.444 8.892C138.044 8.716 137.724 8.476 137.484 8.172C137.244 7.868 137.1 7.516 137.052 7.116H138.6C138.648 7.348 138.776 7.548 138.984 7.716C139.2 7.876 139.476 7.956 139.812 7.956C140.148 7.956 140.392 7.888 140.544 7.752C140.704 7.616 140.784 7.46 140.784 7.284C140.784 7.028 140.672 6.856 140.448 6.768C140.224 6.672 139.912 6.58 139.512 6.492C139.256 6.436 138.996 6.368 138.732 6.288C138.468 6.208 138.224 6.108 138 5.988C137.784 5.86 137.608 5.7 137.472 5.508C137.336 5.308 137.268 5.064 137.268 4.776C137.268 4.248 137.476 3.804 137.892 3.444C138.316 3.084 138.908 2.904 139.668 2.904C140.372 2.904 140.932 3.068 141.348 3.396C141.772 3.724 142.024 4.176 142.104 4.752H140.652C140.564 4.312 140.232 4.092 139.656 4.092C139.368 4.092 139.144 4.148 138.984 4.26C138.832 4.372 138.756 4.512 138.756 4.68C138.756 4.856 138.872 4.996 139.104 5.1C139.336 5.204 139.644 5.3 140.028 5.388C140.444 5.484 140.824 5.592 141.168 5.712C141.52 5.824 141.8 5.996 142.008 6.228C142.216 6.452 142.32 6.776 142.32 7.2C142.328 7.568 142.232 7.9 142.032 8.196C141.832 8.492 141.544 8.724 141.168 8.892C140.792 9.06 140.348 9.144 139.836 9.144ZM151.015 9.47727L150.026 8.49716L152.621 5.90199H146.54V4.46165H152.621L150.026 1.87074L151.015 0.886364L155.31 5.18182L151.015 9.47727Z" fill="#383838"/>
</svg>
