<svg width="52" height="62" viewBox="0 0 52 62" fill="none" xmlns="http://www.w3.org/2000/svg">
<path d="M8.22226 8.50939L18.3593 24.3096C18.4109 24.2797 18.4673 24.247 18.5284 24.2117C18.8738 24.0123 19.3677 23.7295 19.9622 23.3957C21.1506 22.7286 22.7438 21.8564 24.3587 21.0392C25.9694 20.224 27.6179 19.4551 28.9119 19.0014C29.5538 18.7764 30.1401 18.6172 30.6033 18.5802C30.8332 18.5618 31.0707 18.5699 31.2808 18.6417C31.5066 18.7188 31.7159 18.8775 31.8119 19.1448L31.8118 19.1449C32.1284 20.0269 32.5382 21.0358 33.0632 21.8186C33.5991 22.6177 34.1724 23.0607 34.7882 23.0607C34.8407 23.0607 34.9593 23.0457 35.1617 22.9997C35.355 22.9557 35.5982 22.8897 35.8865 22.8032C36.4627 22.6306 37.1998 22.3822 38.0436 22.0818C39.7299 21.4812 41.823 20.6794 43.8668 19.876C45.9098 19.0729 47.9001 18.2696 49.3799 17.6671C50.0753 17.3839 50.6579 17.1451 51.08 16.9715L42.1754 10.5683L41.9065 10.375L42.0112 10.0607L45.1129 0.749339C44.711 0.897653 44.1875 1.08944 43.576 1.31044C42.1163 1.83802 40.1534 2.53259 38.143 3.19966C36.1345 3.86608 34.0704 4.5078 32.411 4.92764C31.5827 5.1372 30.8432 5.29462 30.2565 5.37071C29.9638 5.40867 29.6965 5.42812 29.4688 5.42044C29.2566 5.41328 29.0142 5.38161 28.8199 5.26569L8.22226 8.50939ZM8.22226 8.50939C8.28215 8.47504 8.34816 8.43722 8.41998 8.39614C8.80796 8.17423 9.36552 7.85708 10.0433 7.47646C11.3991 6.71507 13.2348 5.70033 15.1559 4.68601C17.0783 3.671 19.0803 2.6595 20.7705 1.90284C21.616 1.52431 22.3768 1.21262 23.0066 0.99642C23.6518 0.774966 24.1111 0.671387 24.375 0.671428H24.3751C25.5005 0.671428 26.1808 1.41735 26.806 2.45062C26.96 2.70521 27.1052 2.96779 27.252 3.23334L27.2535 3.23609C27.3981 3.4977 27.5452 3.76371 27.6968 4.01179C27.9938 4.498 28.3469 4.98356 28.8197 5.26553L8.22226 8.50939ZM2.4253 8.66838L2.42547 8.66827C3.28761 8.11405 4.46415 8.37608 5.03397 9.27423L34.4904 55.7225L34.4904 55.7226C34.7842 56.1856 34.9391 56.8108 34.932 57.4509C34.9248 58.0915 34.7559 58.6994 34.4572 59.1325C34.1357 59.5974 33.6001 60.0974 32.9844 60.5198C32.3686 60.9422 31.7103 61.261 31.1629 61.3922L31.1624 61.3923L30.7407 61.4938C30.238 61.6142 29.6477 61.538 29.1017 61.2927C28.5562 61.0477 28.0919 60.6504 27.8251 60.1769L27.8251 60.1768L0.711699 12.0882L0.711686 12.0882C0.182404 11.1496 0.484558 9.91537 1.35591 9.35515C1.35597 9.35511 1.35602 9.35508 1.35607 9.35504L2.4253 8.66838Z" fill="url(#paint0_linear_908_671)" stroke="url(#paint1_linear_908_671)" stroke-width="0.9"/>
<defs>
<linearGradient id="paint0_linear_908_671" x1="26" y1="0" x2="26" y2="62" gradientUnits="userSpaceOnUse">
<stop stop-color="#151515"/>
<stop offset="1" stop-color="#383838"/>
</linearGradient>
<linearGradient id="paint1_linear_908_671" x1="26" y1="-24.7279" x2="26" y2="62" gradientUnits="userSpaceOnUse">
<stop stop-color="white"/>
<stop offset="1" stop-color="white" stop-opacity="0"/>
</linearGradient>
</defs>
</svg>
