<svg width="73" height="10" viewBox="0 0 73 10" fill="none" xmlns="http://www.w3.org/2000/svg">
<path d="M0.296388 9.2334V0.974971H2.08965L4.72055 6.21317L7.31605 0.974971H9.10931V9.2334H7.5992V3.53508L5.29863 8.05362H4.10706L1.8065 3.53508V9.2334H0.296388ZM13.1301 9.37497C12.5638 9.37497 12.0526 9.2452 11.5964 8.98565C11.1481 8.7261 10.7902 8.36823 10.5228 7.91205C10.2633 7.44801 10.1335 6.91317 10.1335 6.30756C10.1335 5.70194 10.2672 5.17104 10.5346 4.71486C10.802 4.25081 11.1599 3.88902 11.6082 3.62947C12.0644 3.36992 12.5756 3.24014 13.1419 3.24014C13.7004 3.24014 14.2037 3.36992 14.652 3.62947C15.1082 3.88902 15.4661 4.25081 15.7256 4.71486C15.9931 5.17104 16.1268 5.70194 16.1268 6.30756C16.1268 6.91317 15.9931 7.44801 15.7256 7.91205C15.4661 8.36823 15.1082 8.7261 14.652 8.98565C14.1959 9.2452 13.6886 9.37497 13.1301 9.37497ZM13.1301 8.06542C13.5234 8.06542 13.8655 7.91992 14.1565 7.6289C14.4475 7.33003 14.5931 6.88958 14.5931 6.30756C14.5931 5.72553 14.4475 5.28902 14.1565 4.99801C13.8655 4.69913 13.5273 4.54969 13.1419 4.54969C12.7408 4.54969 12.3947 4.69913 12.1037 4.99801C11.8206 5.28902 11.679 5.72553 11.679 6.30756C11.679 6.88958 11.8206 7.33003 12.1037 7.6289C12.3947 7.91992 12.7369 8.06542 13.1301 8.06542ZM19.9899 9.37497C19.3921 9.37497 18.8652 9.2452 18.409 8.98565C17.9528 8.7261 17.591 8.3643 17.3236 7.90025C17.064 7.43621 16.9343 6.90531 16.9343 6.30756C16.9343 5.7098 17.064 5.1789 17.3236 4.71486C17.591 4.25081 17.9528 3.88902 18.409 3.62947C18.8652 3.36992 19.3921 3.24014 19.9899 3.24014C20.7371 3.24014 21.3663 3.43677 21.8775 3.83003C22.3888 4.21542 22.7152 4.75025 22.8567 5.43452H21.264C21.1854 5.15138 21.0281 4.93115 20.7921 4.77385C20.564 4.60868 20.2927 4.5261 19.9781 4.5261C19.5612 4.5261 19.2073 4.6834 18.9163 4.99801C18.6253 5.31261 18.4798 5.74913 18.4798 6.30756C18.4798 6.86598 18.6253 7.3025 18.9163 7.61711C19.2073 7.93171 19.5612 8.08902 19.9781 8.08902C20.2927 8.08902 20.564 8.01036 20.7921 7.85306C21.0281 7.69576 21.1854 7.4716 21.264 7.18059H22.8567C22.7152 7.84126 22.3888 8.37216 21.8775 8.77329C21.3663 9.17441 20.7371 9.37497 19.9899 9.37497ZM23.8431 9.2334V0.739016H25.3532V5.75306L27.4297 3.38171H29.2229L26.828 6.04801L29.6122 9.2334H27.7246L25.3532 6.29576V9.2334H23.8431ZM34.6102 9.2334V2.19014H32.2035V0.974971H38.5389V2.19014H36.1204V9.2334H34.6102ZM41.0515 9.37497C40.4617 9.37497 39.9386 9.24913 39.4824 8.99744C39.0263 8.74576 38.6684 8.39183 38.4088 7.93565C38.1493 7.47947 38.0195 6.9525 38.0195 6.35475C38.0195 5.74913 38.1454 5.21036 38.397 4.73845C38.6566 4.26654 39.0105 3.90081 39.4588 3.64126C39.915 3.37385 40.4499 3.24014 41.0633 3.24014C41.6375 3.24014 42.1448 3.36598 42.5852 3.61767C43.0257 3.86935 43.3678 4.21542 43.6116 4.65587C43.8633 5.08845 43.9892 5.57216 43.9892 6.10699C43.9892 6.19351 43.9852 6.28396 43.9774 6.37834C43.9774 6.47272 43.9734 6.57104 43.9656 6.67329H39.5178C39.5493 7.12947 39.7066 7.48733 39.9897 7.74688C40.2808 8.00643 40.6308 8.13621 41.0397 8.13621C41.3465 8.13621 41.6021 8.06935 41.8066 7.93565C42.019 7.79407 42.1763 7.61317 42.2785 7.39295H43.8122C43.7021 7.76261 43.5173 8.10081 43.2577 8.40756C43.006 8.70643 42.6914 8.94239 42.3139 9.11542C41.9442 9.28845 41.5234 9.37497 41.0515 9.37497ZM41.0633 4.46711C40.6937 4.46711 40.3673 4.57329 40.0841 4.78565C39.801 4.99014 39.6201 5.30475 39.5414 5.72947H42.4555C42.4319 5.34407 42.2903 5.03733 42.0308 4.80924C41.7712 4.58115 41.4487 4.46711 41.0633 4.46711ZM47.3239 9.37497C46.8048 9.37497 46.3486 9.29239 45.9554 9.12722C45.5621 8.95418 45.2475 8.71823 45.0115 8.41935C44.7756 8.12048 44.634 7.77441 44.5868 7.38115H46.1087C46.1559 7.60924 46.2818 7.80587 46.4862 7.97104C46.6986 8.12834 46.97 8.20699 47.3003 8.20699C47.6306 8.20699 47.8705 8.14014 48.02 8.00643C48.1773 7.87272 48.2559 7.71935 48.2559 7.54632C48.2559 7.29463 48.1458 7.12553 47.9256 7.03902C47.7054 6.94463 47.3986 6.85418 47.0054 6.76767C46.7537 6.71261 46.498 6.64576 46.2385 6.56711C45.9789 6.48845 45.7391 6.39014 45.5188 6.27216C45.3065 6.14632 45.1334 5.98902 44.9997 5.80025C44.866 5.60362 44.7992 5.36374 44.7992 5.08059C44.7992 4.56149 45.0037 4.12497 45.4127 3.77104C45.8295 3.41711 46.4115 3.24014 47.1587 3.24014C47.8509 3.24014 48.4014 3.40138 48.8104 3.72385C49.2273 4.04632 49.475 4.4907 49.5537 5.05699H48.1261C48.0396 4.62441 47.7132 4.40812 47.1469 4.40812C46.8638 4.40812 46.6436 4.46317 46.4862 4.57329C46.3368 4.6834 46.2621 4.82104 46.2621 4.98621C46.2621 5.15924 46.3761 5.29688 46.6042 5.39913C46.8323 5.50138 47.1351 5.59576 47.5127 5.68227C47.9216 5.77666 48.2952 5.88284 48.6334 6.00081C48.9795 6.11093 49.2548 6.28003 49.4593 6.50812C49.6638 6.72834 49.766 7.04688 49.766 7.46374C49.7739 7.82553 49.6795 8.15194 49.4829 8.44295C49.2862 8.73396 49.0031 8.96205 48.6334 9.12722C48.2638 9.29239 47.8273 9.37497 47.3239 9.37497ZM53.1728 9.2334C52.5593 9.2334 52.0678 9.08396 51.6981 8.78508C51.3284 8.48621 51.1436 7.95531 51.1436 7.19239V4.64407H50.1408V3.38171H51.1436L51.3206 1.81261H52.6537V3.38171H54.2346V4.64407H52.6537V7.20418C52.6537 7.48733 52.7127 7.68396 52.8307 7.79407C52.9565 7.89632 53.1689 7.94744 53.4678 7.94744H54.1992V9.2334H53.1728ZM57.5958 9.37497C57.0767 9.37497 56.6205 9.29239 56.2272 9.12722C55.834 8.95418 55.5194 8.71823 55.2834 8.41935C55.0475 8.12048 54.9059 7.77441 54.8587 7.38115H56.3806C56.4278 7.60924 56.5536 7.80587 56.7581 7.97104C56.9705 8.12834 57.2418 8.20699 57.5722 8.20699C57.9025 8.20699 58.1424 8.14014 58.2918 8.00643C58.4491 7.87272 58.5278 7.71935 58.5278 7.54632C58.5278 7.29463 58.4177 7.12553 58.1975 7.03902C57.9772 6.94463 57.6705 6.85418 57.2772 6.76767C57.0255 6.71261 56.7699 6.64576 56.5104 6.56711C56.2508 6.48845 56.0109 6.39014 55.7907 6.27216C55.5784 6.14632 55.4053 5.98902 55.2716 5.80025C55.1379 5.60362 55.071 5.36374 55.071 5.08059C55.071 4.56149 55.2755 4.12497 55.6845 3.77104C56.1014 3.41711 56.6834 3.24014 57.4306 3.24014C58.1227 3.24014 58.6733 3.40138 59.0823 3.72385C59.4991 4.04632 59.7469 4.4907 59.8255 5.05699H58.398C58.3115 4.62441 57.9851 4.40812 57.4188 4.40812C57.1357 4.40812 56.9154 4.46317 56.7581 4.57329C56.6087 4.6834 56.534 4.82104 56.534 4.98621C56.534 5.15924 56.648 5.29688 56.8761 5.39913C57.1042 5.50138 57.407 5.59576 57.7845 5.68227C58.1935 5.77666 58.5671 5.88284 58.9053 6.00081C59.2514 6.11093 59.5267 6.28003 59.7312 6.50812C59.9357 6.72834 60.0379 7.04688 60.0379 7.46374C60.0458 7.82553 59.9514 8.15194 59.7548 8.44295C59.5581 8.73396 59.275 8.96205 58.9053 9.12722C58.5357 9.29239 58.0991 9.37497 57.5958 9.37497ZM68.5859 9.70263L67.6139 8.73903L70.1653 6.1876H64.1868V4.77154H70.1653L67.6139 2.22429L68.5859 1.25651L72.8089 5.47957L68.5859 9.70263Z" fill="black"/>
</svg>
