<svg width="613" height="20" viewBox="0 0 613 20" fill="none" xmlns="http://www.w3.org/2000/svg">
<path d="M6.94 15.08C5.56667 15.08 4.36 14.78 3.32 14.18C2.28 13.5667 1.46667 12.7267 0.88 11.66C0.306667 10.5933 0.0200001 9.37333 0.0200001 8C0.0200001 6.61333 0.306667 5.38667 0.88 4.32C1.46667 3.25333 2.28 2.42 3.32 1.82C4.36 1.22 5.56667 0.919999 6.94 0.919999C8.31333 0.919999 9.52 1.22 10.56 1.82C11.6 2.42 12.4067 3.25333 12.98 4.32C13.5667 5.38667 13.86 6.61333 13.86 8C13.86 9.37333 13.5667 10.5933 12.98 11.66C12.4067 12.7267 11.6 13.5667 10.56 14.18C9.52 14.78 8.31333 15.08 6.94 15.08ZM6.94 14.34C8.19333 14.34 9.28 14.0733 10.2 13.54C11.12 13.0067 11.8267 12.26 12.32 11.3C12.8267 10.34 13.08 9.24 13.08 8C13.08 6.73333 12.8267 5.62667 12.32 4.68C11.8267 3.72 11.12 2.97333 10.2 2.44C9.28 1.90667 8.19333 1.64 6.94 1.64C5.68667 1.64 4.6 1.90667 3.68 2.44C2.76 2.97333 2.04667 3.72 1.54 4.68C1.04667 5.62667 0.8 6.73333 0.8 8C0.8 9.24 1.04667 10.34 1.54 11.3C2.04667 12.26 2.76 13.0067 3.68 13.54C4.6 14.0733 5.68667 14.34 6.94 14.34ZM6.94 12.62C6.14 12.62 5.41333 12.44 4.76 12.08C4.10667 11.72 3.58 11.1933 3.18 10.5C2.79333 9.79333 2.6 8.95333 2.6 7.98C2.6 7.00667 2.79333 6.17333 3.18 5.48C3.58 4.78667 4.10667 4.26 4.76 3.9C5.41333 3.52667 6.14 3.34 6.94 3.34C7.92667 3.34 8.79333 3.60667 9.54 4.14C10.2867 4.66 10.7867 5.41333 11.04 6.4H9.5C9.31333 5.8 8.98667 5.34667 8.52 5.04C8.05333 4.72 7.52 4.56 6.92 4.56C6.14667 4.56 5.48 4.84667 4.92 5.42C4.36 5.99333 4.08 6.85333 4.08 8C4.08 9.13333 4.36 9.98667 4.92 10.56C5.48 11.1333 6.14667 11.42 6.92 11.42C8.22667 11.42 9.08667 10.8133 9.5 9.6H11.04C10.7867 10.5333 10.2867 11.2733 9.54 11.82C8.79333 12.3533 7.92667 12.62 6.94 12.62ZM26.5919 15.24C25.2185 15.24 24.0319 14.94 23.0319 14.34C22.0452 13.7267 21.2785 12.88 20.7319 11.8C20.1852 10.7067 19.9119 9.44 19.9119 8C19.9119 6.57333 20.1852 5.32 20.7319 4.24C21.2785 3.14667 22.0452 2.29333 23.0319 1.68C24.0319 1.06667 25.2185 0.76 26.5919 0.76C28.1919 0.76 29.4919 1.14667 30.4919 1.92C31.5052 2.68 32.1519 3.74667 32.4319 5.12H30.5719C30.3585 4.25333 29.9185 3.56 29.2519 3.04C28.5985 2.50667 27.7119 2.24 26.5919 2.24C25.5919 2.24 24.7185 2.47333 23.9719 2.94C23.2252 3.39333 22.6452 4.05333 22.2319 4.92C21.8319 5.77333 21.6319 6.8 21.6319 8C21.6319 9.2 21.8319 10.2333 22.2319 11.1C22.6452 11.9533 23.2252 12.6133 23.9719 13.08C24.7185 13.5333 25.5919 13.76 26.5919 13.76C27.7119 13.76 28.5985 13.5067 29.2519 13C29.9185 12.48 30.3585 11.7933 30.5719 10.94H32.4319C32.1519 12.2867 31.5052 13.34 30.4919 14.1C29.4919 14.86 28.1919 15.24 26.5919 15.24ZM38.6664 15.24C37.7331 15.24 36.8931 15.0267 36.1464 14.6C35.3997 14.1733 34.8064 13.5733 34.3664 12.8C33.9397 12.0133 33.7264 11.0933 33.7264 10.04C33.7264 8.98667 33.9464 8.07333 34.3864 7.3C34.8264 6.51333 35.4197 5.90667 36.1664 5.48C36.9264 5.05333 37.7731 4.84 38.7064 4.84C39.6397 4.84 40.4797 5.05333 41.2264 5.48C41.9731 5.90667 42.5597 6.51333 42.9864 7.3C43.4264 8.07333 43.6464 8.98667 43.6464 10.04C43.6464 11.0933 43.4264 12.0133 42.9864 12.8C42.5464 13.5733 41.9464 14.1733 41.1864 14.6C40.4397 15.0267 39.5997 15.24 38.6664 15.24ZM38.6664 13.8C39.2397 13.8 39.7731 13.66 40.2664 13.38C40.7597 13.1 41.1597 12.68 41.4664 12.12C41.7731 11.56 41.9264 10.8667 41.9264 10.04C41.9264 9.21333 41.7731 8.52 41.4664 7.96C41.1731 7.4 40.7797 6.98 40.2864 6.7C39.7931 6.42 39.2664 6.28 38.7064 6.28C38.1331 6.28 37.5997 6.42 37.1064 6.7C36.6131 6.98 36.2131 7.4 35.9064 7.96C35.5997 8.52 35.4464 9.21333 35.4464 10.04C35.4464 10.8667 35.5997 11.56 35.9064 12.12C36.2131 12.68 36.6064 13.1 37.0864 13.38C37.5797 13.66 38.1064 13.8 38.6664 13.8ZM45.3823 19.4V5.08H46.9023L47.0623 6.72C47.3823 6.24 47.8357 5.80667 48.4223 5.42C49.0223 5.03333 49.7823 4.84 50.7023 4.84C51.689 4.84 52.549 5.06667 53.2823 5.52C54.0157 5.97333 54.5823 6.59333 54.9823 7.38C55.3957 8.16667 55.6023 9.06 55.6023 10.06C55.6023 11.06 55.3957 11.9533 54.9823 12.74C54.5823 13.5133 54.009 14.1267 53.2623 14.58C52.529 15.02 51.669 15.24 50.6823 15.24C49.869 15.24 49.1423 15.0733 48.5023 14.74C47.8757 14.4067 47.3957 13.94 47.0623 13.34V19.4H45.3823ZM50.5023 13.78C51.169 13.78 51.7557 13.6267 52.2623 13.32C52.769 13 53.169 12.56 53.4623 12C53.7557 11.44 53.9023 10.7867 53.9023 10.04C53.9023 9.29333 53.7557 8.64 53.4623 8.08C53.169 7.52 52.769 7.08667 52.2623 6.78C51.7557 6.46 51.169 6.3 50.5023 6.3C49.8357 6.3 49.249 6.46 48.7423 6.78C48.2357 7.08667 47.8357 7.52 47.5423 8.08C47.249 8.64 47.1023 9.29333 47.1023 10.04C47.1023 10.7867 47.249 11.44 47.5423 12C47.8357 12.56 48.2357 13 48.7423 13.32C49.249 13.6267 49.8357 13.78 50.5023 13.78ZM57.6202 19.4L60.0802 14.04H59.5002L55.5602 5.08H57.3802L60.6602 12.8L64.1402 5.08H65.8802L59.3802 19.4H57.6202ZM67.0534 15V5.08H68.5734L68.7134 6.98C69.0201 6.32667 69.4868 5.80667 70.1134 5.42C70.7401 5.03333 71.5134 4.84 72.4334 4.84V6.6H71.9734C71.3868 6.6 70.8468 6.70667 70.3534 6.92C69.8601 7.12 69.4668 7.46667 69.1734 7.96C68.8801 8.45333 68.7334 9.13333 68.7334 10V15H67.0534ZM74.7391 2.88C74.4057 2.88 74.1257 2.77333 73.8991 2.56C73.6857 2.33333 73.5791 2.05333 73.5791 1.72C73.5791 1.4 73.6857 1.13333 73.8991 0.919999C74.1257 0.706666 74.4057 0.599999 74.7391 0.599999C75.0591 0.599999 75.3324 0.706666 75.5591 0.919999C75.7857 1.13333 75.8991 1.4 75.8991 1.72C75.8991 2.05333 75.7857 2.33333 75.5591 2.56C75.3324 2.77333 75.0591 2.88 74.7391 2.88ZM73.8991 15V5.08H75.5791V15H73.8991ZM81.8242 11.88C81.2642 11.88 80.7509 11.8067 80.2842 11.66L79.2842 12.6C79.4309 12.7067 79.6109 12.8 79.8242 12.88C80.0509 12.9467 80.3709 13.0133 80.7842 13.08C81.1975 13.1333 81.7775 13.1933 82.5242 13.26C83.8575 13.3533 84.8109 13.66 85.3842 14.18C85.9575 14.7 86.2442 15.38 86.2442 16.22C86.2442 16.7933 86.0842 17.34 85.7642 17.86C85.4575 18.38 84.9775 18.8067 84.3242 19.14C83.6842 19.4733 82.8575 19.64 81.8442 19.64C80.9509 19.64 80.1575 19.52 79.4642 19.28C78.7709 19.0533 78.2309 18.7 77.8442 18.22C77.4575 17.7533 77.2642 17.16 77.2642 16.44C77.2642 16.0667 77.3642 15.66 77.5642 15.22C77.7642 14.7933 78.1375 14.3867 78.6842 14C78.3909 13.88 78.1375 13.7533 77.9242 13.62C77.7242 13.4733 77.5375 13.3133 77.3642 13.14V12.68L79.0642 11C78.2775 10.3333 77.8842 9.45333 77.8842 8.36C77.8842 7.70667 78.0375 7.11333 78.3442 6.58C78.6509 6.04667 79.0975 5.62667 79.6842 5.32C80.2709 5 80.9842 4.84 81.8242 4.84C82.3975 4.84 82.9175 4.92 83.3842 5.08H87.0442V6.34L85.1842 6.42C85.5709 6.98 85.7642 7.62667 85.7642 8.36C85.7642 9.01333 85.6042 9.60667 85.2842 10.14C84.9775 10.6733 84.5309 11.1 83.9442 11.42C83.3709 11.7267 82.6642 11.88 81.8242 11.88ZM81.8242 10.5C82.5309 10.5 83.0909 10.32 83.5042 9.96C83.9309 9.58667 84.1442 9.05333 84.1442 8.36C84.1442 7.68 83.9309 7.16 83.5042 6.8C83.0909 6.42667 82.5309 6.24 81.8242 6.24C81.1042 6.24 80.5309 6.42667 80.1042 6.8C79.6909 7.16 79.4842 7.68 79.4842 8.36C79.4842 9.05333 79.6909 9.58667 80.1042 9.96C80.5309 10.32 81.1042 10.5 81.8242 10.5ZM78.9042 16.28C78.9042 16.9467 79.1842 17.44 79.7442 17.76C80.3042 18.0933 81.0042 18.26 81.8442 18.26C82.6709 18.26 83.3309 18.08 83.8242 17.72C84.3309 17.36 84.5842 16.88 84.5842 16.28C84.5842 15.8533 84.4109 15.48 84.0642 15.16C83.7175 14.8533 83.0775 14.6733 82.1442 14.62C81.4109 14.5667 80.7775 14.5 80.2442 14.42C79.6975 14.7133 79.3375 15.0267 79.1642 15.36C78.9909 15.7067 78.9042 16.0133 78.9042 16.28ZM88.3394 15V0.599999H90.0194V6.78C90.3527 6.16667 90.826 5.69333 91.4394 5.36C92.0527 5.01333 92.7194 4.84 93.4394 4.84C94.586 4.84 95.506 5.2 96.1994 5.92C96.8927 6.62667 97.2394 7.72 97.2394 9.2V15H95.5794V9.38C95.5794 7.31333 94.746 6.28 93.0794 6.28C92.2127 6.28 91.486 6.59333 90.8994 7.22C90.3127 7.83333 90.0194 8.71333 90.0194 9.86V15H88.3394ZM103.105 15C102.198 15 101.485 14.78 100.965 14.34C100.445 13.9 100.185 13.1067 100.185 11.96V6.5H98.4647V5.08H100.185L100.405 2.7H101.865V5.08H104.785V6.5H101.865V11.96C101.865 12.5867 101.991 13.0133 102.245 13.24C102.498 13.4533 102.945 13.56 103.585 13.56H104.625V15H103.105ZM110.892 15V13.82C111.839 13.0733 112.732 12.32 113.572 11.56C114.425 10.7867 115.179 10.0267 115.832 9.28C116.499 8.53333 117.019 7.8 117.392 7.08C117.779 6.36 117.972 5.66667 117.972 5C117.972 4.50667 117.885 4.04667 117.712 3.62C117.552 3.19333 117.285 2.85333 116.912 2.6C116.539 2.33333 116.032 2.2 115.392 2.2C114.779 2.2 114.265 2.34 113.852 2.62C113.439 2.88667 113.125 3.24667 112.912 3.7C112.712 4.15333 112.612 4.64 112.612 5.16H110.992C110.992 4.24 111.185 3.45333 111.572 2.8C111.959 2.13333 112.485 1.62667 113.152 1.28C113.819 0.933333 114.572 0.76 115.412 0.76C116.652 0.76 117.665 1.11333 118.452 1.82C119.252 2.51333 119.652 3.55333 119.652 4.94C119.652 5.76667 119.445 6.58667 119.032 7.4C118.619 8.2 118.092 8.98 117.452 9.74C116.812 10.4867 116.125 11.1867 115.392 11.84C114.672 12.4933 113.999 13.08 113.372 13.6H120.132V15H110.892ZM127.222 15.24C125.982 15.24 124.909 14.94 124.002 14.34C123.109 13.7267 122.422 12.88 121.942 11.8C121.462 10.7067 121.222 9.44 121.222 8C121.222 6.56 121.462 5.3 121.942 4.22C122.422 3.12667 123.109 2.28 124.002 1.68C124.909 1.06667 125.982 0.76 127.222 0.76C128.462 0.76 129.529 1.06667 130.422 1.68C131.315 2.28 132.002 3.12667 132.482 4.22C132.962 5.3 133.202 6.56 133.202 8C133.202 9.44 132.962 10.7067 132.482 11.8C132.002 12.88 131.315 13.7267 130.422 14.34C129.529 14.94 128.462 15.24 127.222 15.24ZM127.222 13.76C128.035 13.76 128.762 13.5333 129.402 13.08C130.055 12.6133 130.562 11.9533 130.922 11.1C131.295 10.2333 131.482 9.2 131.482 8C131.482 6.8 131.295 5.77333 130.922 4.92C130.562 4.06667 130.055 3.41333 129.402 2.96C128.762 2.49333 128.035 2.26 127.222 2.26C126.395 2.26 125.662 2.49333 125.022 2.96C124.382 3.41333 123.875 4.06667 123.502 4.92C123.129 5.77333 122.942 6.8 122.942 8C122.942 9.2 123.129 10.2333 123.502 11.1C123.875 11.9533 124.382 12.6133 125.022 13.08C125.662 13.5333 126.395 13.76 127.222 13.76ZM134.614 15V13.82C135.561 13.0733 136.454 12.32 137.294 11.56C138.147 10.7867 138.901 10.0267 139.554 9.28C140.221 8.53333 140.741 7.8 141.114 7.08C141.501 6.36 141.694 5.66667 141.694 5C141.694 4.50667 141.607 4.04667 141.434 3.62C141.274 3.19333 141.007 2.85333 140.634 2.6C140.261 2.33333 139.754 2.2 139.114 2.2C138.501 2.2 137.987 2.34 137.574 2.62C137.161 2.88667 136.847 3.24667 136.634 3.7C136.434 4.15333 136.334 4.64 136.334 5.16H134.714C134.714 4.24 134.907 3.45333 135.294 2.8C135.681 2.13333 136.207 1.62667 136.874 1.28C137.541 0.933333 138.294 0.76 139.134 0.76C140.374 0.76 141.387 1.11333 142.174 1.82C142.974 2.51333 143.374 3.55333 143.374 4.94C143.374 5.76667 143.167 6.58667 142.754 7.4C142.341 8.2 141.814 8.98 141.174 9.74C140.534 10.4867 139.847 11.1867 139.114 11.84C138.394 12.4933 137.721 13.08 137.094 13.6H143.854V15H134.614ZM150.039 15.24C149.146 15.24 148.339 15.08 147.619 14.76C146.899 14.4267 146.319 13.9333 145.879 13.28C145.453 12.6267 145.226 11.8133 145.199 10.84H146.899C146.913 11.64 147.193 12.3333 147.739 12.92C148.286 13.4933 149.053 13.78 150.039 13.78C151.026 13.78 151.766 13.5067 152.259 12.96C152.766 12.4133 153.019 11.7533 153.019 10.98C153.019 10.3267 152.859 9.79333 152.539 9.38C152.233 8.96667 151.813 8.66 151.279 8.46C150.759 8.26 150.186 8.16 149.559 8.16H148.519V6.74H149.559C150.466 6.74 151.173 6.53333 151.679 6.12C152.199 5.70667 152.459 5.12667 152.459 4.38C152.459 3.75333 152.253 3.24 151.839 2.84C151.439 2.42667 150.839 2.22 150.039 2.22C149.266 2.22 148.646 2.45333 148.179 2.92C147.713 3.37333 147.453 3.94667 147.399 4.64H145.699C145.739 3.88 145.939 3.20667 146.299 2.62C146.673 2.03333 147.179 1.58 147.819 1.26C148.459 0.926666 149.199 0.76 150.039 0.76C150.946 0.76 151.699 0.92 152.299 1.24C152.913 1.56 153.373 1.98667 153.679 2.52C153.999 3.05333 154.159 3.64 154.159 4.28C154.159 4.98667 153.966 5.63333 153.579 6.22C153.193 6.79333 152.613 7.18 151.839 7.38C152.666 7.55333 153.353 7.94667 153.899 8.56C154.446 9.17333 154.719 9.98 154.719 10.98C154.719 11.7533 154.539 12.4667 154.179 13.12C153.833 13.76 153.313 14.2733 152.619 14.66C151.926 15.0467 151.066 15.24 150.039 15.24ZM157.317 15.1C156.984 15.1 156.704 14.9933 156.477 14.78C156.264 14.5533 156.157 14.28 156.157 13.96C156.157 13.64 156.264 13.3733 156.477 13.16C156.704 12.9333 156.984 12.82 157.317 12.82C157.637 12.82 157.904 12.9333 158.117 13.16C158.344 13.3733 158.457 13.64 158.457 13.96C158.457 14.28 158.344 14.5533 158.117 14.78C157.904 14.9933 157.637 15.1 157.317 15.1ZM163.956 15L169.116 0.999999H170.896L176.036 15H174.256L172.976 11.4H167.016L165.716 15H163.956ZM167.516 10.04H172.476L169.996 3.12L167.516 10.04ZM177.418 15V0.599999H179.098V15H177.418ZM185.171 11.88C184.611 11.88 184.098 11.8067 183.631 11.66L182.631 12.6C182.778 12.7067 182.958 12.8 183.171 12.88C183.398 12.9467 183.718 13.0133 184.131 13.08C184.544 13.1333 185.124 13.1933 185.871 13.26C187.204 13.3533 188.158 13.66 188.731 14.18C189.304 14.7 189.591 15.38 189.591 16.22C189.591 16.7933 189.431 17.34 189.111 17.86C188.804 18.38 188.324 18.8067 187.671 19.14C187.031 19.4733 186.204 19.64 185.191 19.64C184.298 19.64 183.504 19.52 182.811 19.28C182.118 19.0533 181.578 18.7 181.191 18.22C180.804 17.7533 180.611 17.16 180.611 16.44C180.611 16.0667 180.711 15.66 180.911 15.22C181.111 14.7933 181.484 14.3867 182.031 14C181.738 13.88 181.484 13.7533 181.271 13.62C181.071 13.4733 180.884 13.3133 180.711 13.14V12.68L182.411 11C181.624 10.3333 181.231 9.45333 181.231 8.36C181.231 7.70667 181.384 7.11333 181.691 6.58C181.998 6.04667 182.444 5.62667 183.031 5.32C183.618 5 184.331 4.84 185.171 4.84C185.744 4.84 186.264 4.92 186.731 5.08H190.391V6.34L188.531 6.42C188.918 6.98 189.111 7.62667 189.111 8.36C189.111 9.01333 188.951 9.60667 188.631 10.14C188.324 10.6733 187.878 11.1 187.291 11.42C186.718 11.7267 186.011 11.88 185.171 11.88ZM185.171 10.5C185.878 10.5 186.438 10.32 186.851 9.96C187.278 9.58667 187.491 9.05333 187.491 8.36C187.491 7.68 187.278 7.16 186.851 6.8C186.438 6.42667 185.878 6.24 185.171 6.24C184.451 6.24 183.878 6.42667 183.451 6.8C183.038 7.16 182.831 7.68 182.831 8.36C182.831 9.05333 183.038 9.58667 183.451 9.96C183.878 10.32 184.451 10.5 185.171 10.5ZM182.251 16.28C182.251 16.9467 182.531 17.44 183.091 17.76C183.651 18.0933 184.351 18.26 185.191 18.26C186.018 18.26 186.678 18.08 187.171 17.72C187.678 17.36 187.931 16.88 187.931 16.28C187.931 15.8533 187.758 15.48 187.411 15.16C187.064 14.8533 186.424 14.6733 185.491 14.62C184.758 14.5667 184.124 14.5 183.591 14.42C183.044 14.7133 182.684 15.0267 182.511 15.36C182.338 15.7067 182.251 16.0133 182.251 16.28ZM195.816 15.24C194.882 15.24 194.042 15.0267 193.296 14.6C192.549 14.1733 191.956 13.5733 191.516 12.8C191.089 12.0133 190.876 11.0933 190.876 10.04C190.876 8.98667 191.096 8.07333 191.536 7.3C191.976 6.51333 192.569 5.90667 193.316 5.48C194.076 5.05333 194.922 4.84 195.856 4.84C196.789 4.84 197.629 5.05333 198.376 5.48C199.122 5.90667 199.709 6.51333 200.136 7.3C200.576 8.07333 200.796 8.98667 200.796 10.04C200.796 11.0933 200.576 12.0133 200.136 12.8C199.696 13.5733 199.096 14.1733 198.336 14.6C197.589 15.0267 196.749 15.24 195.816 15.24ZM195.816 13.8C196.389 13.8 196.922 13.66 197.416 13.38C197.909 13.1 198.309 12.68 198.616 12.12C198.922 11.56 199.076 10.8667 199.076 10.04C199.076 9.21333 198.922 8.52 198.616 7.96C198.322 7.4 197.929 6.98 197.436 6.7C196.942 6.42 196.416 6.28 195.856 6.28C195.282 6.28 194.749 6.42 194.256 6.7C193.762 6.98 193.362 7.4 193.056 7.96C192.749 8.52 192.596 9.21333 192.596 10.04C192.596 10.8667 192.749 11.56 193.056 12.12C193.362 12.68 193.756 13.1 194.236 13.38C194.729 13.66 195.256 13.8 195.816 13.8ZM202.032 15V13.68L208.932 2.46H202.132V0.999999H210.892V2.32L203.972 13.54H210.972V15H202.032ZM217.095 15.24C216.148 15.24 215.308 15.0267 214.575 14.6C213.841 14.16 213.261 13.5533 212.835 12.78C212.421 12.0067 212.215 11.0933 212.215 10.04C212.215 9 212.421 8.09333 212.835 7.32C213.248 6.53333 213.821 5.92667 214.555 5.5C215.301 5.06 216.161 4.84 217.135 4.84C218.095 4.84 218.921 5.06 219.615 5.5C220.321 5.92667 220.861 6.49333 221.235 7.2C221.608 7.90667 221.795 8.66667 221.795 9.48C221.795 9.62667 221.788 9.77333 221.775 9.92C221.775 10.0667 221.775 10.2333 221.775 10.42H213.875C213.915 11.18 214.088 11.8133 214.395 12.32C214.715 12.8133 215.108 13.1867 215.575 13.44C216.055 13.6933 216.561 13.82 217.095 13.82C217.788 13.82 218.368 13.66 218.835 13.34C219.301 13.02 219.641 12.5867 219.855 12.04H221.515C221.248 12.96 220.735 13.7267 219.975 14.34C219.228 14.94 218.268 15.24 217.095 15.24ZM217.095 6.26C216.295 6.26 215.581 6.50667 214.955 7C214.341 7.48 213.988 8.18667 213.895 9.12H220.135C220.095 8.22667 219.788 7.52667 219.215 7.02C218.641 6.51333 217.935 6.26 217.095 6.26ZM223.421 15V5.08H224.941L225.041 6.86C225.361 6.23333 225.821 5.74 226.421 5.38C227.021 5.02 227.701 4.84 228.461 4.84C229.635 4.84 230.568 5.2 231.261 5.92C231.968 6.62667 232.321 7.72 232.321 9.2V15H230.641V9.38C230.641 7.31333 229.788 6.28 228.081 6.28C227.228 6.28 226.515 6.59333 225.941 7.22C225.381 7.83333 225.101 8.71333 225.101 9.86V15H223.421ZM235.287 2.88C234.953 2.88 234.673 2.77333 234.447 2.56C234.233 2.33333 234.127 2.05333 234.127 1.72C234.127 1.4 234.233 1.13333 234.447 0.919999C234.673 0.706666 234.953 0.599999 235.287 0.599999C235.607 0.599999 235.88 0.706666 236.107 0.919999C236.333 1.13333 236.447 1.4 236.447 1.72C236.447 2.05333 236.333 2.33333 236.107 2.56C235.88 2.77333 235.607 2.88 235.287 2.88ZM234.447 15V5.08H236.127V15H234.447ZM242.372 15C241.465 15 240.752 14.78 240.232 14.34C239.712 13.9 239.452 13.1067 239.452 11.96V6.5H237.732V5.08H239.452L239.672 2.7H241.132V5.08H244.052V6.5H241.132V11.96C241.132 12.5867 241.259 13.0133 241.512 13.24C241.765 13.4533 242.212 13.56 242.852 13.56H243.892V15H242.372ZM245.586 15V0.599999H247.266V6.78C247.6 6.16667 248.073 5.69333 248.686 5.36C249.3 5.01333 249.966 4.84 250.686 4.84C251.833 4.84 252.753 5.2 253.446 5.92C254.14 6.62667 254.486 7.72 254.486 9.2V15H252.826V9.38C252.826 7.31333 251.993 6.28 250.326 6.28C249.46 6.28 248.733 6.59333 248.146 7.22C247.56 7.83333 247.266 8.71333 247.266 9.86V15H245.586ZM264.505 15V2.38H260.325V0.999999H270.365V2.38H266.185V15H264.505ZM274.379 15.24C273.432 15.24 272.592 15.0267 271.859 14.6C271.126 14.16 270.546 13.5533 270.119 12.78C269.706 12.0067 269.499 11.0933 269.499 10.04C269.499 9 269.706 8.09333 270.119 7.32C270.532 6.53333 271.106 5.92667 271.839 5.5C272.586 5.06 273.446 4.84 274.419 4.84C275.379 4.84 276.206 5.06 276.899 5.5C277.606 5.92667 278.146 6.49333 278.519 7.2C278.892 7.90667 279.079 8.66667 279.079 9.48C279.079 9.62667 279.072 9.77333 279.059 9.92C279.059 10.0667 279.059 10.2333 279.059 10.42H271.159C271.199 11.18 271.372 11.8133 271.679 12.32C271.999 12.8133 272.392 13.1867 272.859 13.44C273.339 13.6933 273.846 13.82 274.379 13.82C275.072 13.82 275.652 13.66 276.119 13.34C276.586 13.02 276.926 12.5867 277.139 12.04H278.799C278.532 12.96 278.019 13.7267 277.259 14.34C276.512 14.94 275.552 15.24 274.379 15.24ZM274.379 6.26C273.579 6.26 272.866 6.50667 272.239 7C271.626 7.48 271.272 8.18667 271.179 9.12H277.419C277.379 8.22667 277.072 7.52667 276.499 7.02C275.926 6.51333 275.219 6.26 274.379 6.26ZM285.266 15.24C284.319 15.24 283.466 15.0267 282.706 14.6C281.959 14.16 281.366 13.5533 280.926 12.78C280.499 11.9933 280.286 11.08 280.286 10.04C280.286 9 280.499 8.09333 280.926 7.32C281.366 6.53333 281.959 5.92667 282.706 5.5C283.466 5.06 284.319 4.84 285.266 4.84C286.439 4.84 287.426 5.14667 288.226 5.76C289.039 6.37333 289.552 7.19333 289.766 8.22H288.046C287.912 7.60667 287.586 7.13333 287.066 6.8C286.546 6.45333 285.939 6.28 285.246 6.28C284.686 6.28 284.159 6.42 283.666 6.7C283.172 6.98 282.772 7.4 282.466 7.96C282.159 8.52 282.006 9.21333 282.006 10.04C282.006 10.8667 282.159 11.56 282.466 12.12C282.772 12.68 283.172 13.1067 283.666 13.4C284.159 13.68 284.686 13.82 285.246 13.82C285.939 13.82 286.546 13.6533 287.066 13.32C287.586 12.9733 287.912 12.4867 288.046 11.86H289.766C289.566 12.86 289.059 13.6733 288.246 14.3C287.432 14.9267 286.439 15.24 285.266 15.24ZM291.512 15V0.599999H293.192V6.78C293.525 6.16667 293.999 5.69333 294.612 5.36C295.225 5.01333 295.892 4.84 296.612 4.84C297.759 4.84 298.679 5.2 299.372 5.92C300.065 6.62667 300.412 7.72 300.412 9.2V15H298.752V9.38C298.752 7.31333 297.919 6.28 296.252 6.28C295.385 6.28 294.659 6.59333 294.072 7.22C293.485 7.83333 293.192 8.71333 293.192 9.86V15H291.512ZM302.357 15V5.08H303.877L303.977 6.86C304.297 6.23333 304.757 5.74 305.357 5.38C305.957 5.02 306.637 4.84 307.397 4.84C308.571 4.84 309.504 5.2 310.197 5.92C310.904 6.62667 311.257 7.72 311.257 9.2V15H309.577V9.38C309.577 7.31333 308.724 6.28 307.017 6.28C306.164 6.28 305.451 6.59333 304.877 7.22C304.317 7.83333 304.037 8.71333 304.037 9.86V15H302.357ZM317.723 15.24C316.789 15.24 315.949 15.0267 315.203 14.6C314.456 14.1733 313.863 13.5733 313.423 12.8C312.996 12.0133 312.783 11.0933 312.783 10.04C312.783 8.98667 313.003 8.07333 313.443 7.3C313.883 6.51333 314.476 5.90667 315.223 5.48C315.983 5.05333 316.829 4.84 317.763 4.84C318.696 4.84 319.536 5.05333 320.283 5.48C321.029 5.90667 321.616 6.51333 322.043 7.3C322.483 8.07333 322.703 8.98667 322.703 10.04C322.703 11.0933 322.483 12.0133 322.043 12.8C321.603 13.5733 321.003 14.1733 320.243 14.6C319.496 15.0267 318.656 15.24 317.723 15.24ZM317.723 13.8C318.296 13.8 318.829 13.66 319.323 13.38C319.816 13.1 320.216 12.68 320.523 12.12C320.829 11.56 320.983 10.8667 320.983 10.04C320.983 9.21333 320.829 8.52 320.523 7.96C320.229 7.4 319.836 6.98 319.343 6.7C318.849 6.42 318.323 6.28 317.763 6.28C317.189 6.28 316.656 6.42 316.163 6.7C315.669 6.98 315.269 7.4 314.963 7.96C314.656 8.52 314.503 9.21333 314.503 10.04C314.503 10.8667 314.656 11.56 314.963 12.12C315.269 12.68 315.663 13.1 316.143 13.38C316.636 13.66 317.163 13.8 317.723 13.8ZM324.439 15V0.599999H326.119V15H324.439ZM332.792 15.24C331.859 15.24 331.019 15.0267 330.272 14.6C329.526 14.1733 328.932 13.5733 328.492 12.8C328.066 12.0133 327.852 11.0933 327.852 10.04C327.852 8.98667 328.072 8.07333 328.512 7.3C328.952 6.51333 329.546 5.90667 330.292 5.48C331.052 5.05333 331.899 4.84 332.832 4.84C333.766 4.84 334.606 5.05333 335.352 5.48C336.099 5.90667 336.686 6.51333 337.112 7.3C337.552 8.07333 337.772 8.98667 337.772 10.04C337.772 11.0933 337.552 12.0133 337.112 12.8C336.672 13.5733 336.072 14.1733 335.312 14.6C334.566 15.0267 333.726 15.24 332.792 15.24ZM332.792 13.8C333.366 13.8 333.899 13.66 334.392 13.38C334.886 13.1 335.286 12.68 335.592 12.12C335.899 11.56 336.052 10.8667 336.052 10.04C336.052 9.21333 335.899 8.52 335.592 7.96C335.299 7.4 334.906 6.98 334.412 6.7C333.919 6.42 333.392 6.28 332.832 6.28C332.259 6.28 331.726 6.42 331.232 6.7C330.739 6.98 330.339 7.4 330.032 7.96C329.726 8.52 329.572 9.21333 329.572 10.04C329.572 10.8667 329.726 11.56 330.032 12.12C330.339 12.68 330.732 13.1 331.212 13.38C331.706 13.66 332.232 13.8 332.792 13.8ZM342.998 11.88C342.438 11.88 341.925 11.8067 341.458 11.66L340.458 12.6C340.605 12.7067 340.785 12.8 340.998 12.88C341.225 12.9467 341.545 13.0133 341.958 13.08C342.372 13.1333 342.952 13.1933 343.698 13.26C345.032 13.3533 345.985 13.66 346.558 14.18C347.132 14.7 347.418 15.38 347.418 16.22C347.418 16.7933 347.258 17.34 346.938 17.86C346.632 18.38 346.152 18.8067 345.498 19.14C344.858 19.4733 344.032 19.64 343.018 19.64C342.125 19.64 341.332 19.52 340.638 19.28C339.945 19.0533 339.405 18.7 339.018 18.22C338.632 17.7533 338.438 17.16 338.438 16.44C338.438 16.0667 338.538 15.66 338.738 15.22C338.938 14.7933 339.312 14.3867 339.858 14C339.565 13.88 339.312 13.7533 339.098 13.62C338.898 13.4733 338.712 13.3133 338.538 13.14V12.68L340.238 11C339.452 10.3333 339.058 9.45333 339.058 8.36C339.058 7.70667 339.212 7.11333 339.518 6.58C339.825 6.04667 340.272 5.62667 340.858 5.32C341.445 5 342.158 4.84 342.998 4.84C343.572 4.84 344.092 4.92 344.558 5.08H348.218V6.34L346.358 6.42C346.745 6.98 346.938 7.62667 346.938 8.36C346.938 9.01333 346.778 9.60667 346.458 10.14C346.152 10.6733 345.705 11.1 345.118 11.42C344.545 11.7267 343.838 11.88 342.998 11.88ZM342.998 10.5C343.705 10.5 344.265 10.32 344.678 9.96C345.105 9.58667 345.318 9.05333 345.318 8.36C345.318 7.68 345.105 7.16 344.678 6.8C344.265 6.42667 343.705 6.24 342.998 6.24C342.278 6.24 341.705 6.42667 341.278 6.8C340.865 7.16 340.658 7.68 340.658 8.36C340.658 9.05333 340.865 9.58667 341.278 9.96C341.705 10.32 342.278 10.5 342.998 10.5ZM340.078 16.28C340.078 16.9467 340.358 17.44 340.918 17.76C341.478 18.0933 342.178 18.26 343.018 18.26C343.845 18.26 344.505 18.08 344.998 17.72C345.505 17.36 345.758 16.88 345.758 16.28C345.758 15.8533 345.585 15.48 345.238 15.16C344.892 14.8533 344.252 14.6733 343.318 14.62C342.585 14.5667 341.952 14.5 341.418 14.42C340.872 14.7133 340.512 15.0267 340.338 15.36C340.165 15.7067 340.078 16.0133 340.078 16.28ZM350.534 2.88C350.2 2.88 349.92 2.77333 349.694 2.56C349.48 2.33333 349.374 2.05333 349.374 1.72C349.374 1.4 349.48 1.13333 349.694 0.919999C349.92 0.706666 350.2 0.599999 350.534 0.599999C350.854 0.599999 351.127 0.706666 351.354 0.919999C351.58 1.13333 351.694 1.4 351.694 1.72C351.694 2.05333 351.58 2.33333 351.354 2.56C351.127 2.77333 350.854 2.88 350.534 2.88ZM349.694 15V5.08H351.374V15H349.694ZM358.159 15.24C357.212 15.24 356.372 15.0267 355.639 14.6C354.905 14.16 354.325 13.5533 353.899 12.78C353.485 12.0067 353.279 11.0933 353.279 10.04C353.279 9 353.485 8.09333 353.899 7.32C354.312 6.53333 354.885 5.92667 355.619 5.5C356.365 5.06 357.225 4.84 358.199 4.84C359.159 4.84 359.985 5.06 360.679 5.5C361.385 5.92667 361.925 6.49333 362.299 7.2C362.672 7.90667 362.859 8.66667 362.859 9.48C362.859 9.62667 362.852 9.77333 362.839 9.92C362.839 10.0667 362.839 10.2333 362.839 10.42H354.939C354.979 11.18 355.152 11.8133 355.459 12.32C355.779 12.8133 356.172 13.1867 356.639 13.44C357.119 13.6933 357.625 13.82 358.159 13.82C358.852 13.82 359.432 13.66 359.899 13.34C360.365 13.02 360.705 12.5867 360.919 12.04H362.579C362.312 12.96 361.799 13.7267 361.039 14.34C360.292 14.94 359.332 15.24 358.159 15.24ZM358.159 6.26C357.359 6.26 356.645 6.50667 356.019 7C355.405 7.48 355.052 8.18667 354.959 9.12H361.199C361.159 8.22667 360.852 7.52667 360.279 7.02C359.705 6.51333 358.999 6.26 358.159 6.26ZM368.285 15.24C367.099 15.24 366.112 14.94 365.325 14.34C364.539 13.74 364.079 12.9267 363.945 11.9H365.665C365.772 12.42 366.045 12.8733 366.485 13.26C366.939 13.6333 367.545 13.82 368.305 13.82C369.012 13.82 369.532 13.6733 369.865 13.38C370.199 13.0733 370.365 12.7133 370.365 12.3C370.365 11.7 370.145 11.3 369.705 11.1C369.279 10.9 368.672 10.72 367.885 10.56C367.352 10.4533 366.819 10.3 366.285 10.1C365.752 9.9 365.305 9.62 364.945 9.26C364.585 8.88667 364.405 8.4 364.405 7.8C364.405 6.93333 364.725 6.22667 365.365 5.68C366.019 5.12 366.899 4.84 368.005 4.84C369.059 4.84 369.919 5.10667 370.585 5.64C371.265 6.16 371.659 6.90667 371.765 7.88H370.105C370.039 7.37333 369.819 6.98 369.445 6.7C369.085 6.40667 368.599 6.26 367.985 6.26C367.385 6.26 366.919 6.38667 366.585 6.64C366.265 6.89333 366.105 7.22667 366.105 7.64C366.105 8.04 366.312 8.35333 366.725 8.58C367.152 8.80667 367.725 9 368.445 9.16C369.059 9.29333 369.639 9.46 370.185 9.66C370.745 9.84667 371.199 10.1333 371.545 10.52C371.905 10.8933 372.085 11.44 372.085 12.16C372.099 13.0533 371.759 13.7933 371.065 14.38C370.385 14.9533 369.459 15.24 368.285 15.24ZM378.678 15V0.999999H383.278C384.372 0.999999 385.272 1.18 385.978 1.54C386.685 1.9 387.205 2.38667 387.538 3C387.885 3.61333 388.058 4.30667 388.058 5.08C388.058 5.84 387.892 6.52667 387.558 7.14C387.225 7.75333 386.705 8.24667 385.998 8.62C385.292 8.98 384.385 9.16 383.278 9.16H380.358V15H378.678ZM380.358 7.74H383.238C384.358 7.74 385.152 7.50667 385.618 7.04C386.098 6.56 386.338 5.90667 386.338 5.08C386.338 4.24 386.098 3.58667 385.618 3.12C385.152 2.64 384.358 2.4 383.238 2.4H380.358V7.74ZM392.42 15L388.66 5.08H390.42L393.4 13.38L396.4 5.08H398.12L394.36 15H392.42ZM403.369 15C402.462 15 401.749 14.78 401.229 14.34C400.709 13.9 400.449 13.1067 400.449 11.96V6.5H398.729V5.08H400.449L400.669 2.7H402.129V5.08H405.049V6.5H402.129V11.96C402.129 12.5867 402.255 13.0133 402.509 13.24C402.762 13.4533 403.209 13.56 403.849 13.56H404.889V15H403.369ZM411.376 15V0.999999H413.056V13.66H419.576V15H411.376ZM424.108 15C423.201 15 422.488 14.78 421.968 14.34C421.448 13.9 421.188 13.1067 421.188 11.96V6.5H419.468V5.08H421.188L421.408 2.7H422.868V5.08H425.788V6.5H422.868V11.96C422.868 12.5867 422.994 13.0133 423.248 13.24C423.501 13.4533 423.948 13.56 424.588 13.56H425.628V15H424.108ZM431.549 15.24C430.562 15.24 429.695 15.0133 428.949 14.56C428.215 14.1067 427.642 13.4867 427.229 12.7C426.829 11.9133 426.629 11.02 426.629 10.02C426.629 9.02 426.835 8.13333 427.249 7.36C427.662 6.57333 428.235 5.96 428.969 5.52C429.702 5.06667 430.569 4.84 431.569 4.84C432.382 4.84 433.102 5.00667 433.729 5.34C434.355 5.67333 434.842 6.14 435.189 6.74V0.599999H436.869V15H435.349L435.189 13.36C434.869 13.84 434.409 14.2733 433.809 14.66C433.209 15.0467 432.455 15.24 431.549 15.24ZM431.729 13.78C432.395 13.78 432.982 13.6267 433.489 13.32C434.009 13 434.409 12.56 434.689 12C434.982 11.44 435.129 10.7867 435.129 10.04C435.129 9.29333 434.982 8.64 434.689 8.08C434.409 7.52 434.009 7.08667 433.489 6.78C432.982 6.46 432.395 6.3 431.729 6.3C431.075 6.3 430.489 6.46 429.969 6.78C429.462 7.08667 429.062 7.52 428.769 8.08C428.489 8.64 428.349 9.29333 428.349 10.04C428.349 10.7867 428.489 11.44 428.769 12C429.062 12.56 429.462 13 429.969 13.32C430.489 13.6267 431.075 13.78 431.729 13.78ZM439.587 15.1C439.254 15.1 438.974 14.9933 438.747 14.78C438.534 14.5533 438.427 14.28 438.427 13.96C438.427 13.64 438.534 13.3733 438.747 13.16C438.974 12.9333 439.254 12.82 439.587 12.82C439.907 12.82 440.174 12.9333 440.387 13.16C440.614 13.3733 440.727 13.64 440.727 13.96C440.727 14.28 440.614 14.5533 440.387 14.78C440.174 14.9933 439.907 15.1 439.587 15.1ZM446.227 15L451.387 0.999999H453.167L458.307 15H456.527L455.247 11.4H449.287L447.987 15H446.227ZM449.787 10.04H454.747L452.267 3.12L449.787 10.04ZM459.688 15V0.599999H461.368V15H459.688ZM463.521 15V0.599999H465.201V15H463.521ZM472.148 15V0.999999H476.668C477.761 0.999999 478.655 1.18 479.348 1.54C480.041 1.9 480.555 2.39333 480.888 3.02C481.221 3.64667 481.388 4.34 481.388 5.1C481.388 5.98 481.148 6.77333 480.668 7.48C480.201 8.18667 479.468 8.68667 478.468 8.98L481.528 15H479.548L476.708 9.22H476.588H473.828V15H472.148ZM473.828 7.9H476.548C477.628 7.9 478.415 7.64 478.908 7.12C479.401 6.6 479.648 5.93333 479.648 5.12C479.648 4.29333 479.401 3.64 478.908 3.16C478.428 2.66667 477.635 2.42 476.528 2.42H473.828V7.9ZM484.323 2.88C483.99 2.88 483.71 2.77333 483.483 2.56C483.27 2.33333 483.163 2.05333 483.163 1.72C483.163 1.4 483.27 1.13333 483.483 0.919999C483.71 0.706666 483.99 0.599999 484.323 0.599999C484.643 0.599999 484.917 0.706666 485.143 0.919999C485.37 1.13333 485.483 1.4 485.483 1.72C485.483 2.05333 485.37 2.33333 485.143 2.56C484.917 2.77333 484.643 2.88 484.323 2.88ZM483.483 15V5.08H485.163V15H483.483ZM491.409 11.88C490.849 11.88 490.335 11.8067 489.869 11.66L488.869 12.6C489.015 12.7067 489.195 12.8 489.409 12.88C489.635 12.9467 489.955 13.0133 490.369 13.08C490.782 13.1333 491.362 13.1933 492.109 13.26C493.442 13.3533 494.395 13.66 494.969 14.18C495.542 14.7 495.829 15.38 495.829 16.22C495.829 16.7933 495.669 17.34 495.349 17.86C495.042 18.38 494.562 18.8067 493.909 19.14C493.269 19.4733 492.442 19.64 491.429 19.64C490.535 19.64 489.742 19.52 489.049 19.28C488.355 19.0533 487.815 18.7 487.429 18.22C487.042 17.7533 486.849 17.16 486.849 16.44C486.849 16.0667 486.949 15.66 487.149 15.22C487.349 14.7933 487.722 14.3867 488.269 14C487.975 13.88 487.722 13.7533 487.509 13.62C487.309 13.4733 487.122 13.3133 486.949 13.14V12.68L488.649 11C487.862 10.3333 487.469 9.45333 487.469 8.36C487.469 7.70667 487.622 7.11333 487.929 6.58C488.235 6.04667 488.682 5.62667 489.269 5.32C489.855 5 490.569 4.84 491.409 4.84C491.982 4.84 492.502 4.92 492.969 5.08H496.629V6.34L494.769 6.42C495.155 6.98 495.349 7.62667 495.349 8.36C495.349 9.01333 495.189 9.60667 494.869 10.14C494.562 10.6733 494.115 11.1 493.529 11.42C492.955 11.7267 492.249 11.88 491.409 11.88ZM491.409 10.5C492.115 10.5 492.675 10.32 493.089 9.96C493.515 9.58667 493.729 9.05333 493.729 8.36C493.729 7.68 493.515 7.16 493.089 6.8C492.675 6.42667 492.115 6.24 491.409 6.24C490.689 6.24 490.115 6.42667 489.689 6.8C489.275 7.16 489.069 7.68 489.069 8.36C489.069 9.05333 489.275 9.58667 489.689 9.96C490.115 10.32 490.689 10.5 491.409 10.5ZM488.489 16.28C488.489 16.9467 488.769 17.44 489.329 17.76C489.889 18.0933 490.589 18.26 491.429 18.26C492.255 18.26 492.915 18.08 493.409 17.72C493.915 17.36 494.169 16.88 494.169 16.28C494.169 15.8533 493.995 15.48 493.649 15.16C493.302 14.8533 492.662 14.6733 491.729 14.62C490.995 14.5667 490.362 14.5 489.829 14.42C489.282 14.7133 488.922 15.0267 488.749 15.36C488.575 15.7067 488.489 16.0133 488.489 16.28ZM497.924 15V0.599999H499.604V6.78C499.937 6.16667 500.41 5.69333 501.024 5.36C501.637 5.01333 502.304 4.84 503.024 4.84C504.17 4.84 505.09 5.2 505.784 5.92C506.477 6.62667 506.824 7.72 506.824 9.2V15H505.164V9.38C505.164 7.31333 504.33 6.28 502.664 6.28C501.797 6.28 501.07 6.59333 500.484 7.22C499.897 7.83333 499.604 8.71333 499.604 9.86V15H497.924ZM512.689 15C511.782 15 511.069 14.78 510.549 14.34C510.029 13.9 509.769 13.1067 509.769 11.96V6.5H508.049V5.08H509.769L509.989 2.7H511.449V5.08H514.369V6.5H511.449V11.96C511.449 12.5867 511.576 13.0133 511.829 13.24C512.082 13.4533 512.529 13.56 513.169 13.56H514.209V15H512.689ZM519.703 15.24C518.517 15.24 517.53 14.94 516.743 14.34C515.957 13.74 515.497 12.9267 515.363 11.9H517.083C517.19 12.42 517.463 12.8733 517.903 13.26C518.357 13.6333 518.963 13.82 519.723 13.82C520.43 13.82 520.95 13.6733 521.283 13.38C521.617 13.0733 521.783 12.7133 521.783 12.3C521.783 11.7 521.563 11.3 521.123 11.1C520.697 10.9 520.09 10.72 519.303 10.56C518.77 10.4533 518.237 10.3 517.703 10.1C517.17 9.9 516.723 9.62 516.363 9.26C516.003 8.88667 515.823 8.4 515.823 7.8C515.823 6.93333 516.143 6.22667 516.783 5.68C517.437 5.12 518.317 4.84 519.423 4.84C520.477 4.84 521.337 5.10667 522.003 5.64C522.683 6.16 523.077 6.90667 523.183 7.88H521.523C521.457 7.37333 521.237 6.98 520.863 6.7C520.503 6.40667 520.017 6.26 519.403 6.26C518.803 6.26 518.337 6.38667 518.003 6.64C517.683 6.89333 517.523 7.22667 517.523 7.64C517.523 8.04 517.73 8.35333 518.143 8.58C518.57 8.80667 519.143 9 519.863 9.16C520.477 9.29333 521.057 9.46 521.603 9.66C522.163 9.84667 522.617 10.1333 522.963 10.52C523.323 10.8933 523.503 11.44 523.503 12.16C523.517 13.0533 523.177 13.7933 522.483 14.38C521.803 14.9533 520.877 15.24 519.703 15.24ZM530.096 15V0.999999H534.616C535.71 0.999999 536.603 1.18 537.296 1.54C537.99 1.9 538.503 2.39333 538.836 3.02C539.17 3.64667 539.336 4.34 539.336 5.1C539.336 5.98 539.096 6.77333 538.616 7.48C538.15 8.18667 537.416 8.68667 536.416 8.98L539.476 15H537.496L534.656 9.22H534.536H531.776V15H530.096ZM531.776 7.9H534.496C535.576 7.9 536.363 7.64 536.856 7.12C537.35 6.6 537.596 5.93333 537.596 5.12C537.596 4.29333 537.35 3.64 536.856 3.16C536.376 2.66667 535.583 2.42 534.476 2.42H531.776V7.9ZM545.106 15.24C544.16 15.24 543.32 15.0267 542.586 14.6C541.853 14.16 541.273 13.5533 540.846 12.78C540.433 12.0067 540.226 11.0933 540.226 10.04C540.226 9 540.433 8.09333 540.846 7.32C541.26 6.53333 541.833 5.92667 542.566 5.5C543.313 5.06 544.173 4.84 545.146 4.84C546.106 4.84 546.933 5.06 547.626 5.5C548.333 5.92667 548.873 6.49333 549.246 7.2C549.62 7.90667 549.806 8.66667 549.806 9.48C549.806 9.62667 549.8 9.77333 549.786 9.92C549.786 10.0667 549.786 10.2333 549.786 10.42H541.886C541.926 11.18 542.1 11.8133 542.406 12.32C542.726 12.8133 543.12 13.1867 543.586 13.44C544.066 13.6933 544.573 13.82 545.106 13.82C545.8 13.82 546.38 13.66 546.846 13.34C547.313 13.02 547.653 12.5867 547.866 12.04H549.526C549.26 12.96 548.746 13.7267 547.986 14.34C547.24 14.94 546.28 15.24 545.106 15.24ZM545.106 6.26C544.306 6.26 543.593 6.50667 542.966 7C542.353 7.48 542 8.18667 541.906 9.12H548.146C548.106 8.22667 547.8 7.52667 547.226 7.02C546.653 6.51333 545.946 6.26 545.106 6.26ZM555.233 15.24C554.046 15.24 553.06 14.94 552.273 14.34C551.486 13.74 551.026 12.9267 550.893 11.9H552.613C552.72 12.42 552.993 12.8733 553.433 13.26C553.886 13.6333 554.493 13.82 555.253 13.82C555.96 13.82 556.48 13.6733 556.813 13.38C557.146 13.0733 557.313 12.7133 557.313 12.3C557.313 11.7 557.093 11.3 556.653 11.1C556.226 10.9 555.62 10.72 554.833 10.56C554.3 10.4533 553.766 10.3 553.233 10.1C552.7 9.9 552.253 9.62 551.893 9.26C551.533 8.88667 551.353 8.4 551.353 7.8C551.353 6.93333 551.673 6.22667 552.313 5.68C552.966 5.12 553.846 4.84 554.953 4.84C556.006 4.84 556.866 5.10667 557.533 5.64C558.213 6.16 558.606 6.90667 558.713 7.88H557.053C556.986 7.37333 556.766 6.98 556.393 6.7C556.033 6.40667 555.546 6.26 554.933 6.26C554.333 6.26 553.866 6.38667 553.533 6.64C553.213 6.89333 553.053 7.22667 553.053 7.64C553.053 8.04 553.26 8.35333 553.673 8.58C554.1 8.80667 554.673 9 555.393 9.16C556.006 9.29333 556.586 9.46 557.133 9.66C557.693 9.84667 558.146 10.1333 558.493 10.52C558.853 10.8933 559.033 11.44 559.033 12.16C559.046 13.0533 558.706 13.7933 558.013 14.38C557.333 14.9533 556.406 15.24 555.233 15.24ZM565.293 15.24C564.346 15.24 563.506 15.0267 562.773 14.6C562.04 14.16 561.46 13.5533 561.033 12.78C560.62 12.0067 560.413 11.0933 560.413 10.04C560.413 9 560.62 8.09333 561.033 7.32C561.446 6.53333 562.02 5.92667 562.753 5.5C563.5 5.06 564.36 4.84 565.333 4.84C566.293 4.84 567.12 5.06 567.813 5.5C568.52 5.92667 569.06 6.49333 569.433 7.2C569.806 7.90667 569.993 8.66667 569.993 9.48C569.993 9.62667 569.986 9.77333 569.973 9.92C569.973 10.0667 569.973 10.2333 569.973 10.42H562.073C562.113 11.18 562.286 11.8133 562.593 12.32C562.913 12.8133 563.306 13.1867 563.773 13.44C564.253 13.6933 564.76 13.82 565.293 13.82C565.986 13.82 566.566 13.66 567.033 13.34C567.5 13.02 567.84 12.5867 568.053 12.04H569.713C569.446 12.96 568.933 13.7267 568.173 14.34C567.426 14.94 566.466 15.24 565.293 15.24ZM565.293 6.26C564.493 6.26 563.78 6.50667 563.153 7C562.54 7.48 562.186 8.18667 562.093 9.12H568.333C568.293 8.22667 567.986 7.52667 567.413 7.02C566.84 6.51333 566.133 6.26 565.293 6.26ZM571.62 15V5.08H573.14L573.28 6.98C573.587 6.32667 574.053 5.80667 574.68 5.42C575.307 5.03333 576.08 4.84 577 4.84V6.6H576.54C575.953 6.6 575.413 6.70667 574.92 6.92C574.427 7.12 574.033 7.46667 573.74 7.96C573.447 8.45333 573.3 9.13333 573.3 10V15H571.62ZM581.145 15L577.385 5.08H579.145L582.125 13.38L585.125 5.08H586.845L583.085 15H581.145ZM592.067 15.24C591.121 15.24 590.281 15.0267 589.547 14.6C588.814 14.16 588.234 13.5533 587.807 12.78C587.394 12.0067 587.187 11.0933 587.187 10.04C587.187 9 587.394 8.09333 587.807 7.32C588.221 6.53333 588.794 5.92667 589.527 5.5C590.274 5.06 591.134 4.84 592.107 4.84C593.067 4.84 593.894 5.06 594.587 5.5C595.294 5.92667 595.834 6.49333 596.207 7.2C596.581 7.90667 596.767 8.66667 596.767 9.48C596.767 9.62667 596.761 9.77333 596.747 9.92C596.747 10.0667 596.747 10.2333 596.747 10.42H588.847C588.887 11.18 589.061 11.8133 589.367 12.32C589.687 12.8133 590.081 13.1867 590.547 13.44C591.027 13.6933 591.534 13.82 592.067 13.82C592.761 13.82 593.341 13.66 593.807 13.34C594.274 13.02 594.614 12.5867 594.827 12.04H596.487C596.221 12.96 595.707 13.7267 594.947 14.34C594.201 14.94 593.241 15.24 592.067 15.24ZM592.067 6.26C591.267 6.26 590.554 6.50667 589.927 7C589.314 7.48 588.961 8.18667 588.867 9.12H595.107C595.067 8.22667 594.761 7.52667 594.187 7.02C593.614 6.51333 592.907 6.26 592.067 6.26ZM602.894 15.24C601.907 15.24 601.041 15.0133 600.294 14.56C599.561 14.1067 598.987 13.4867 598.574 12.7C598.174 11.9133 597.974 11.02 597.974 10.02C597.974 9.02 598.181 8.13333 598.594 7.36C599.007 6.57333 599.581 5.96 600.314 5.52C601.047 5.06667 601.914 4.84 602.914 4.84C603.727 4.84 604.447 5.00667 605.074 5.34C605.701 5.67333 606.187 6.14 606.534 6.74V0.599999H608.214V15H606.694L606.534 13.36C606.214 13.84 605.754 14.2733 605.154 14.66C604.554 15.0467 603.801 15.24 602.894 15.24ZM603.074 13.78C603.741 13.78 604.327 13.6267 604.834 13.32C605.354 13 605.754 12.56 606.034 12C606.327 11.44 606.474 10.7867 606.474 10.04C606.474 9.29333 606.327 8.64 606.034 8.08C605.754 7.52 605.354 7.08667 604.834 6.78C604.327 6.46 603.741 6.3 603.074 6.3C602.421 6.3 601.834 6.46 601.314 6.78C600.807 7.08667 600.407 7.52 600.114 8.08C599.834 8.64 599.694 9.29333 599.694 10.04C599.694 10.7867 599.834 11.44 600.114 12C600.407 12.56 600.807 13 601.314 13.32C601.834 13.6267 602.421 13.78 603.074 13.78ZM610.933 15.1C610.599 15.1 610.319 14.9933 610.093 14.78C609.879 14.5533 609.773 14.28 609.773 13.96C609.773 13.64 609.879 13.3733 610.093 13.16C610.319 12.9333 610.599 12.82 610.933 12.82C611.253 12.82 611.519 12.9333 611.733 13.16C611.959 13.3733 612.073 13.64 612.073 13.96C612.073 14.28 611.959 14.5533 611.733 14.78C611.519 14.9933 611.253 15.1 610.933 15.1Z" fill="black"/>
</svg>
